solid OpenSCAD_Model
  facet normal 0 0 -1
    outer loop
      vertex -40 0 0
      vertex -39.6722 3.11867 0
      vertex -39.6722 -3.11867 0
    endloop
  endfacet
  facet normal 0 0 -1
    outer loop
      vertex -39.6722 -3.11867 0
      vertex -39.6722 3.11867 0
      vertex -38.7032 6.10105 0
    endloop
  endfacet
  facet normal 0 0 -1
    outer loop
      vertex -39.6722 -3.11867 0
      vertex -38.7032 6.10105 0
      vertex -37.1353 8.81678 0
    endloop
  endfacet
  facet normal 0 0 -1
    outer loop
      vertex -39.6722 -3.11867 0
      vertex -37.1353 8.81678 0
      vertex -35.037 11.1472 0
    endloop
  endfacet
  facet normal 0 0 -1
    outer loop
      vertex -39.6722 -3.11867 0
      vertex -35.037 11.1472 0
      vertex -32.5 12.9904 0
    endloop
  endfacet
  facet normal 0 0 -1
    outer loop
      vertex -33.0296 8.91774 0
      vertex -32.5 12.9904 0
      vertex -29.6353 14.2658 0
    endloop
  endfacet
  facet normal 0 0 -1
    outer loop
      vertex -31 10.3923 0
      vertex -29.6353 14.2658 0
      vertex -27.5 14.7197 0
    endloop
  endfacet
  facet normal 0 0 -1
    outer loop
      vertex -27.5 14.7197 0
      vertex -27.5 15 0
      vertex 27.5 15 0
    endloop
  endfacet
  facet normal 0 0 -1
    outer loop
      vertex -27.5 -14.7197 0
      vertex 27.5 -15 0
      vertex -27.5 -15 0
    endloop
  endfacet
  facet normal 0 0 -1
    outer loop
      vertex -27.5 -11.6695 0
      vertex 27.5 -15 0
      vertex -27.5 -14.7197 0
    endloop
  endfacet
  facet normal 0 0 -1
    outer loop
      vertex -36.7378 2.49494 0
      vertex -39.6722 -3.11867 0
      vertex -35.9625 4.88084 0
    endloop
  endfacet
  facet normal 0 0 -1
    outer loop
      vertex -37 0 0
      vertex -39.6722 -3.11867 0
      vertex -36.7378 2.49494 0
    endloop
  endfacet
  facet normal 0 0 -1
    outer loop
      vertex -39.6722 -3.11867 0
      vertex -29.6353 -14.2658 0
      vertex -32.5 -12.9904 0
    endloop
  endfacet
  facet normal 0 0 -1
    outer loop
      vertex -39.6722 -3.11867 0
      vertex -32.5 -12.9904 0
      vertex -35.037 -11.1472 0
    endloop
  endfacet
  facet normal 0 0 -1
    outer loop
      vertex -39.6722 -3.11867 0
      vertex -35.037 -11.1472 0
      vertex -37.1353 -8.81678 0
    endloop
  endfacet
  facet normal 0 0 -1
    outer loop
      vertex -39.6722 -3.11867 0
      vertex -37.1353 -8.81678 0
      vertex -38.7032 -6.10105 0
    endloop
  endfacet
  facet normal 0 0 -1
    outer loop
      vertex -31 10.3923 0
      vertex -27.5 14.7197 0
      vertex -28.7082 11.4127 0
    endloop
  endfacet
  facet normal 0 0 -1
    outer loop
      vertex -36.7378 -2.49494 0
      vertex -39.6722 -3.11867 0
      vertex -37 0 0
    endloop
  endfacet
  facet normal 0 0 -1
    outer loop
      vertex -35.9625 -4.88084 0
      vertex -39.6722 -3.11867 0
      vertex -36.7378 -2.49494 0
    endloop
  endfacet
  facet normal 0 0 -1
    outer loop
      vertex -31 -10.3923 0
      vertex -27.5 -14.7197 0
      vertex -33.0296 -8.91774 0
    endloop
  endfacet
  facet normal 0 0 -1
    outer loop
      vertex -27.5 11.6695 0
      vertex 27.5 -15 0
      vertex -27.5 -11.6695 0
    endloop
  endfacet
  facet normal 0 0 -1
    outer loop
      vertex -39.6722 -3.11867 0
      vertex -35.9625 -4.88084 0
      vertex -34.7082 -7.05342 0
    endloop
  endfacet
  facet normal 0 0 -1
    outer loop
      vertex -39.6722 -3.11867 0
      vertex -34.7082 -7.05342 0
      vertex -33.0296 -8.91774 0
    endloop
  endfacet
  facet normal 0 0 -1
    outer loop
      vertex -39.6722 -3.11867 0
      vertex -33.0296 -8.91774 0
      vertex -27.5 -14.7197 0
    endloop
  endfacet
  facet normal 0 0 -1
    outer loop
      vertex -27.5 11.6695 0
      vertex 27.5 15 0
      vertex 27.5 -15 0
    endloop
  endfacet
  facet normal 0 0 -1
    outer loop
      vertex -31 -10.3923 0
      vertex -28.7082 -11.4127 0
      vertex -27.5 -14.7197 0
    endloop
  endfacet
  facet normal 0 0 -1
    outer loop
      vertex -28.7082 -11.4127 0
      vertex -27.5 -11.6695 0
      vertex -27.5 -14.7197 0
    endloop
  endfacet
  facet normal 0 0 -1
    outer loop
      vertex -27.5 14.7197 0
      vertex 27.5 15 0
      vertex -27.5 11.6695 0
    endloop
  endfacet
  facet normal 0 0 -1
    outer loop
      vertex -27.5 14.7197 0
      vertex -27.5 11.6695 0
      vertex -28.7082 11.4127 0
    endloop
  endfacet
  facet normal 0 0 -1
    outer loop
      vertex -34.7082 7.05342 0
      vertex -32.5 12.9904 0
      vertex -33.0296 8.91774 0
    endloop
  endfacet
  facet normal 0 0 -1
    outer loop
      vertex -35.9625 4.88084 0
      vertex -32.5 12.9904 0
      vertex -34.7082 7.05342 0
    endloop
  endfacet
  facet normal 0 0 -1
    outer loop
      vertex -39.6722 -3.11867 0
      vertex -32.5 12.9904 0
      vertex -35.9625 4.88084 0
    endloop
  endfacet
  facet normal 0 0 -1
    outer loop
      vertex -29.6353 -14.2658 0
      vertex -39.6722 -3.11867 0
      vertex -27.5 -14.7197 0
    endloop
  endfacet
  facet normal 0 0 -1
    outer loop
      vertex -33.0296 8.91774 0
      vertex -29.6353 14.2658 0
      vertex -31 10.3923 0
    endloop
  endfacet
  facet normal -0.994522 0.104528 0
    outer loop
      vertex -40 0 0
      vertex -40 0 2
      vertex -39.6722 3.11867 0
    endloop
  endfacet
  facet normal -0.994522 0.104528 0
    outer loop
      vertex -39.6722 3.11867 0
      vertex -40 0 2
      vertex -39.6722 3.11867 2
    endloop
  endfacet
  facet normal -0.994522 -0.104528 0
    outer loop
      vertex -40 0 0
      vertex -39.6722 -3.11867 0
      vertex -40 0 2
    endloop
  endfacet
  facet normal -0.994522 -0.104528 0
    outer loop
      vertex -40 0 2
      vertex -39.6722 -3.11867 0
      vertex -39.6722 -3.11867 2
    endloop
  endfacet
  facet normal -0.951057 -0.309017 0
    outer loop
      vertex -39.6722 -3.11867 0
      vertex -38.7032 -6.10105 0
      vertex -39.6722 -3.11867 2
    endloop
  endfacet
  facet normal -0.951057 -0.309017 0
    outer loop
      vertex -39.6722 -3.11867 2
      vertex -38.7032 -6.10105 0
      vertex -38.7032 -6.10105 2
    endloop
  endfacet
  facet normal -0.866025 -0.5 0
    outer loop
      vertex -38.7032 -6.10105 0
      vertex -37.1353 -8.81678 0
      vertex -38.7032 -6.10105 2
    endloop
  endfacet
  facet normal -0.866025 -0.5 0
    outer loop
      vertex -38.7032 -6.10105 2
      vertex -37.1353 -8.81678 0
      vertex -37.1353 -8.81678 2
    endloop
  endfacet
  facet normal -0.743145 -0.669131 0
    outer loop
      vertex -37.1353 -8.81678 0
      vertex -35.037 -11.1472 0
      vertex -37.1353 -8.81678 2
    endloop
  endfacet
  facet normal -0.743145 -0.669131 0
    outer loop
      vertex -37.1353 -8.81678 2
      vertex -35.037 -11.1472 0
      vertex -35.037 -11.1472 2
    endloop
  endfacet
  facet normal -0.587785 -0.809017 0
    outer loop
      vertex -35.037 -11.1472 2
      vertex -35.037 -11.1472 0
      vertex -32.5 -12.9904 0
    endloop
  endfacet
  facet normal -0.587785 -0.809017 0
    outer loop
      vertex -32.5 -12.9904 2
      vertex -35.037 -11.1472 2
      vertex -32.5 -12.9904 0
    endloop
  endfacet
  facet normal -0.406737 -0.913545 0
    outer loop
      vertex -32.5 -12.9904 2
      vertex -32.5 -12.9904 0
      vertex -29.6353 -14.2658 0
    endloop
  endfacet
  facet normal -0.406737 -0.913545 0
    outer loop
      vertex -29.6353 -14.2658 2
      vertex -32.5 -12.9904 2
      vertex -29.6353 -14.2658 0
    endloop
  endfacet
  facet normal -0.207911 -0.978148 0
    outer loop
      vertex -29.6353 -14.2658 2
      vertex -29.6353 -14.2658 0
      vertex -27.5 -14.7197 0
    endloop
  endfacet
  facet normal -0.207911 -0.978148 0
    outer loop
      vertex -27.5 -14.7197 2
      vertex -29.6353 -14.2658 2
      vertex -27.5 -14.7197 0
    endloop
  endfacet
  facet normal -1 0 0
    outer loop
      vertex -27.5 -15 0
      vertex -27.5 -15 16
      vertex -27.5 -14.7197 0
    endloop
  endfacet
  facet normal -1 0 0
    outer loop
      vertex -27.5 -14.7197 2
      vertex -27.5 -15 16
      vertex -27.5 -8 16
    endloop
  endfacet
  facet normal -1 0 0
    outer loop
      vertex -27.5 -11.6695 2
      vertex -27.5 -8 13.5
      vertex -27.5 8 13.5
    endloop
  endfacet
  facet normal -1 0 0
    outer loop
      vertex -27.5 8 13.5
      vertex -27.5 8 16
      vertex -27.5 15 16
    endloop
  endfacet
  facet normal -1 0 0
    outer loop
      vertex -27.5 -14.7197 2
      vertex -27.5 -8 13.5
      vertex -27.5 -11.6695 2
    endloop
  endfacet
  facet normal -1 0 0
    outer loop
      vertex -27.5 14.7197 0
      vertex -27.5 15 16
      vertex -27.5 15 0
    endloop
  endfacet
  facet normal -1 0 0
    outer loop
      vertex -27.5 14.7197 2
      vertex -27.5 15 16
      vertex -27.5 14.7197 0
    endloop
  endfacet
  facet normal -1 0 0
    outer loop
      vertex -27.5 11.6695 2
      vertex -27.5 15 16
      vertex -27.5 14.7197 2
    endloop
  endfacet
  facet normal -1 0 0
    outer loop
      vertex -27.5 -11.6695 2
      vertex -27.5 11.6695 2
      vertex -27.5 -11.6695 0
    endloop
  endfacet
  facet normal -1 0 0
    outer loop
      vertex -27.5 -11.6695 2
      vertex -27.5 8 13.5
      vertex -27.5 15 16
    endloop
  endfacet
  facet normal -1 0 0
    outer loop
      vertex -27.5 -11.6695 2
      vertex -27.5 15 16
      vertex -27.5 11.6695 2
    endloop
  endfacet
  facet normal -1 0 0
    outer loop
      vertex -27.5 -14.7197 2
      vertex -27.5 -8 16
      vertex -27.5 -8 13.5
    endloop
  endfacet
  facet normal -1 0 0
    outer loop
      vertex -27.5 -14.7197 0
      vertex -27.5 -15 16
      vertex -27.5 -14.7197 2
    endloop
  endfacet
  facet normal -1 0 0
    outer loop
      vertex -27.5 11.6695 0
      vertex -27.5 -11.6695 0
      vertex -27.5 11.6695 2
    endloop
  endfacet
  facet normal 0 -1 0
    outer loop
      vertex -27.5 -15 16
      vertex -27.5 -15 0
      vertex 27.5 -15 0
    endloop
  endfacet
  facet normal 0 -1 0
    outer loop
      vertex 27.5 -15 16
      vertex -27.5 -15 16
      vertex 27.5 -15 0
    endloop
  endfacet
  facet normal 1 0 0
    outer loop
      vertex 27.5 -15 16
      vertex 27.5 -15 0
      vertex 27.5 15 0
    endloop
  endfacet
  facet normal 1 0 0
    outer loop
      vertex 27.5 -8 13.5
      vertex 27.5 -15 16
      vertex 27.5 15 0
    endloop
  endfacet
  facet normal 1 0 0
    outer loop
      vertex 27.5 15 16
      vertex 27.5 8 16
      vertex 27.5 15 0
    endloop
  endfacet
  facet normal 1 0 0
    outer loop
      vertex 27.5 8 16
      vertex 27.5 8 13.5
      vertex 27.5 15 0
    endloop
  endfacet
  facet normal 1 0 0
    outer loop
      vertex 27.5 8 13.5
      vertex 27.5 -8 13.5
      vertex 27.5 15 0
    endloop
  endfacet
  facet normal 1 0 0
    outer loop
      vertex 27.5 -8 13.5
      vertex 27.5 -8 16
      vertex 27.5 -15 16
    endloop
  endfacet
  facet normal 0 1 0
    outer loop
      vertex -27.5 15 0
      vertex -27.5 15 16
      vertex 27.5 15 0
    endloop
  endfacet
  facet normal 0 1 0
    outer loop
      vertex 27.5 15 0
      vertex -27.5 15 16
      vertex 27.5 15 16
    endloop
  endfacet
  facet normal -0.207911 0.978148 0
    outer loop
      vertex -29.6353 14.2658 0
      vertex -29.6353 14.2658 2
      vertex -27.5 14.7197 0
    endloop
  endfacet
  facet normal -0.207911 0.978148 0
    outer loop
      vertex -27.5 14.7197 0
      vertex -29.6353 14.2658 2
      vertex -27.5 14.7197 2
    endloop
  endfacet
  facet normal -0.406737 0.913545 0
    outer loop
      vertex -32.5 12.9904 0
      vertex -32.5 12.9904 2
      vertex -29.6353 14.2658 0
    endloop
  endfacet
  facet normal -0.406737 0.913545 0
    outer loop
      vertex -29.6353 14.2658 0
      vertex -32.5 12.9904 2
      vertex -29.6353 14.2658 2
    endloop
  endfacet
  facet normal -0.587785 0.809017 0
    outer loop
      vertex -35.037 11.1472 0
      vertex -35.037 11.1472 2
      vertex -32.5 12.9904 0
    endloop
  endfacet
  facet normal -0.587785 0.809017 0
    outer loop
      vertex -32.5 12.9904 0
      vertex -35.037 11.1472 2
      vertex -32.5 12.9904 2
    endloop
  endfacet
  facet normal -0.743145 0.669131 0
    outer loop
      vertex -37.1353 8.81678 0
      vertex -37.1353 8.81678 2
      vertex -35.037 11.1472 0
    endloop
  endfacet
  facet normal -0.743145 0.669131 0
    outer loop
      vertex -35.037 11.1472 0
      vertex -37.1353 8.81678 2
      vertex -35.037 11.1472 2
    endloop
  endfacet
  facet normal -0.866025 0.5 0
    outer loop
      vertex -38.7032 6.10105 0
      vertex -38.7032 6.10105 2
      vertex -37.1353 8.81678 0
    endloop
  endfacet
  facet normal -0.866025 0.5 0
    outer loop
      vertex -37.1353 8.81678 0
      vertex -38.7032 6.10105 2
      vertex -37.1353 8.81678 2
    endloop
  endfacet
  facet normal -0.951057 0.309017 0
    outer loop
      vertex -39.6722 3.11867 0
      vertex -39.6722 3.11867 2
      vertex -38.7032 6.10105 0
    endloop
  endfacet
  facet normal -0.951057 0.309017 0
    outer loop
      vertex -38.7032 6.10105 0
      vertex -39.6722 3.11867 2
      vertex -38.7032 6.10105 2
    endloop
  endfacet
  facet normal 0.994522 -0.104529 0
    outer loop
      vertex -36.7378 2.49494 0
      vertex -36.7378 2.49494 2
      vertex -37 0 2
    endloop
  endfacet
  facet normal 0.994522 -0.104529 0
    outer loop
      vertex -37 0 0
      vertex -36.7378 2.49494 0
      vertex -37 0 2
    endloop
  endfacet
  facet normal 0.994522 0.104529 0
    outer loop
      vertex -37 0 2
      vertex -36.7378 -2.49494 2
      vertex -36.7378 -2.49494 0
    endloop
  endfacet
  facet normal 0.994522 0.104529 0
    outer loop
      vertex -37 0 0
      vertex -37 0 2
      vertex -36.7378 -2.49494 0
    endloop
  endfacet
  facet normal 0.951057 -0.309017 0
    outer loop
      vertex -35.9625 4.88084 0
      vertex -35.9625 4.88084 2
      vertex -36.7378 2.49494 2
    endloop
  endfacet
  facet normal 0.951057 -0.309017 0
    outer loop
      vertex -36.7378 2.49494 0
      vertex -35.9625 4.88084 0
      vertex -36.7378 2.49494 2
    endloop
  endfacet
  facet normal 0.866025 -0.5 0
    outer loop
      vertex -34.7082 7.05342 0
      vertex -34.7082 7.05342 2
      vertex -35.9625 4.88084 2
    endloop
  endfacet
  facet normal 0.866025 -0.5 0
    outer loop
      vertex -35.9625 4.88084 0
      vertex -34.7082 7.05342 0
      vertex -35.9625 4.88084 2
    endloop
  endfacet
  facet normal 0.743145 -0.669131 0
    outer loop
      vertex -33.0296 8.91774 0
      vertex -33.0296 8.91774 2
      vertex -34.7082 7.05342 2
    endloop
  endfacet
  facet normal 0.743145 -0.669131 0
    outer loop
      vertex -34.7082 7.05342 0
      vertex -33.0296 8.91774 0
      vertex -34.7082 7.05342 2
    endloop
  endfacet
  facet normal 0.587785 -0.809017 0
    outer loop
      vertex -31 10.3923 0
      vertex -31 10.3923 2
      vertex -33.0296 8.91774 2
    endloop
  endfacet
  facet normal 0.587785 -0.809017 0
    outer loop
      vertex -33.0296 8.91774 0
      vertex -31 10.3923 0
      vertex -33.0296 8.91774 2
    endloop
  endfacet
  facet normal 0.406737 -0.913546 0
    outer loop
      vertex -28.7082 11.4127 0
      vertex -28.7082 11.4127 2
      vertex -31 10.3923 2
    endloop
  endfacet
  facet normal 0.406737 -0.913546 0
    outer loop
      vertex -31 10.3923 0
      vertex -28.7082 11.4127 0
      vertex -31 10.3923 2
    endloop
  endfacet
  facet normal 0.207912 -0.978148 0
    outer loop
      vertex -27.5 11.6695 0
      vertex -27.5 11.6695 2
      vertex -28.7082 11.4127 2
    endloop
  endfacet
  facet normal 0.207912 -0.978148 0
    outer loop
      vertex -28.7082 11.4127 0
      vertex -27.5 11.6695 0
      vertex -28.7082 11.4127 2
    endloop
  endfacet
  facet normal 0.207912 0.978148 0
    outer loop
      vertex -27.5 -11.6695 2
      vertex -27.5 -11.6695 0
      vertex -28.7082 -11.4127 2
    endloop
  endfacet
  facet normal 0.207912 0.978148 0
    outer loop
      vertex -28.7082 -11.4127 2
      vertex -27.5 -11.6695 0
      vertex -28.7082 -11.4127 0
    endloop
  endfacet
  facet normal 0.406737 0.913546 0
    outer loop
      vertex -28.7082 -11.4127 2
      vertex -28.7082 -11.4127 0
      vertex -31 -10.3923 2
    endloop
  endfacet
  facet normal 0.406737 0.913546 0
    outer loop
      vertex -31 -10.3923 2
      vertex -28.7082 -11.4127 0
      vertex -31 -10.3923 0
    endloop
  endfacet
  facet normal 0.587785 0.809017 0
    outer loop
      vertex -31 -10.3923 2
      vertex -31 -10.3923 0
      vertex -33.0296 -8.91774 2
    endloop
  endfacet
  facet normal 0.587785 0.809017 0
    outer loop
      vertex -33.0296 -8.91774 2
      vertex -31 -10.3923 0
      vertex -33.0296 -8.91774 0
    endloop
  endfacet
  facet normal 0.743145 0.669131 0
    outer loop
      vertex -34.7082 -7.05342 2
      vertex -33.0296 -8.91774 2
      vertex -33.0296 -8.91774 0
    endloop
  endfacet
  facet normal 0.743145 0.669131 0
    outer loop
      vertex -34.7082 -7.05342 0
      vertex -34.7082 -7.05342 2
      vertex -33.0296 -8.91774 0
    endloop
  endfacet
  facet normal 0.866025 0.5 0
    outer loop
      vertex -35.9625 -4.88084 2
      vertex -34.7082 -7.05342 2
      vertex -34.7082 -7.05342 0
    endloop
  endfacet
  facet normal 0.866025 0.5 0
    outer loop
      vertex -35.9625 -4.88084 0
      vertex -35.9625 -4.88084 2
      vertex -34.7082 -7.05342 0
    endloop
  endfacet
  facet normal 0.951057 0.309017 0
    outer loop
      vertex -36.7378 -2.49494 2
      vertex -35.9625 -4.88084 2
      vertex -35.9625 -4.88084 0
    endloop
  endfacet
  facet normal 0.951057 0.309017 0
    outer loop
      vertex -36.7378 -2.49494 0
      vertex -36.7378 -2.49494 2
      vertex -35.9625 -4.88084 0
    endloop
  endfacet
  facet normal 0 0 1
    outer loop
      vertex -39.6722 -3.11867 2
      vertex -38.7032 -6.10105 2
      vertex -37.1353 -8.81678 2
    endloop
  endfacet
  facet normal 0 0 1
    outer loop
      vertex -32.5 -12.9904 2
      vertex -39.6722 -3.11867 2
      vertex -35.037 -11.1472 2
    endloop
  endfacet
  facet normal 0 0 1
    outer loop
      vertex -35.037 -11.1472 2
      vertex -39.6722 -3.11867 2
      vertex -37.1353 -8.81678 2
    endloop
  endfacet
  facet normal 0 0 1
    outer loop
      vertex -29.6353 -14.2658 2
      vertex -39.6722 -3.11867 2
      vertex -32.5 -12.9904 2
    endloop
  endfacet
  facet normal 0 0 1
    outer loop
      vertex -27.5 -14.7197 2
      vertex -39.6722 -3.11867 2
      vertex -29.6353 -14.2658 2
    endloop
  endfacet
  facet normal 0 0 1
    outer loop
      vertex -33.0296 -8.91774 2
      vertex -39.6722 -3.11867 2
      vertex -27.5 -14.7197 2
    endloop
  endfacet
  facet normal 0 0 1
    outer loop
      vertex -27.5 -11.6695 2
      vertex -28.7082 -11.4127 2
      vertex -27.5 -14.7197 2
    endloop
  endfacet
  facet normal 0 0 1
    outer loop
      vertex -28.7082 -11.4127 2
      vertex -31 -10.3923 2
      vertex -27.5 -14.7197 2
    endloop
  endfacet
  facet normal 0 0 1
    outer loop
      vertex -31 -10.3923 2
      vertex -33.0296 -8.91774 2
      vertex -27.5 -14.7197 2
    endloop
  endfacet
  facet normal 0 0 1
    outer loop
      vertex -36.7378 -2.49494 2
      vertex -39.6722 -3.11867 2
      vertex -35.9625 -4.88084 2
    endloop
  endfacet
  facet normal 0 0 1
    outer loop
      vertex -37 0 2
      vertex -39.6722 -3.11867 2
      vertex -36.7378 -2.49494 2
    endloop
  endfacet
  facet normal 0 0 1
    outer loop
      vertex -36.7378 2.49494 2
      vertex -39.6722 -3.11867 2
      vertex -37 0 2
    endloop
  endfacet
  facet normal 0 0 1
    outer loop
      vertex -35.9625 4.88084 2
      vertex -39.6722 -3.11867 2
      vertex -36.7378 2.49494 2
    endloop
  endfacet
  facet normal 0 0 1
    outer loop
      vertex -32.5 12.9904 2
      vertex -39.6722 -3.11867 2
      vertex -35.9625 4.88084 2
    endloop
  endfacet
  facet normal 0 0 1
    outer loop
      vertex -32.5 12.9904 2
      vertex -35.9625 4.88084 2
      vertex -34.7082 7.05342 2
    endloop
  endfacet
  facet normal 0 0 1
    outer loop
      vertex -29.6353 14.2658 2
      vertex -34.7082 7.05342 2
      vertex -33.0296 8.91774 2
    endloop
  endfacet
  facet normal 0 0 1
    outer loop
      vertex -27.5 14.7197 2
      vertex -33.0296 8.91774 2
      vertex -31 10.3923 2
    endloop
  endfacet
  facet normal 0 0 1
    outer loop
      vertex -27.5 14.7197 2
      vertex -31 10.3923 2
      vertex -28.7082 11.4127 2
    endloop
  endfacet
  facet normal 0 0 1
    outer loop
      vertex -27.5 14.7197 2
      vertex -28.7082 11.4127 2
      vertex -27.5 11.6695 2
    endloop
  endfacet
  facet normal 0 0 1
    outer loop
      vertex -29.6353 14.2658 2
      vertex -33.0296 8.91774 2
      vertex -27.5 14.7197 2
    endloop
  endfacet
  facet normal 0 0 1
    outer loop
      vertex -32.5 12.9904 2
      vertex -34.7082 7.05342 2
      vertex -29.6353 14.2658 2
    endloop
  endfacet
  facet normal 0 0 1
    outer loop
      vertex -35.037 11.1472 2
      vertex -39.6722 -3.11867 2
      vertex -32.5 12.9904 2
    endloop
  endfacet
  facet normal 0 0 1
    outer loop
      vertex -37.1353 8.81678 2
      vertex -39.6722 -3.11867 2
      vertex -35.037 11.1472 2
    endloop
  endfacet
  facet normal 0 0 1
    outer loop
      vertex -38.7032 6.10105 2
      vertex -39.6722 -3.11867 2
      vertex -37.1353 8.81678 2
    endloop
  endfacet
  facet normal 0 0 1
    outer loop
      vertex -39.6722 3.11867 2
      vertex -39.6722 -3.11867 2
      vertex -38.7032 6.10105 2
    endloop
  endfacet
  facet normal 0 0 1
    outer loop
      vertex -40 0 2
      vertex -39.6722 -3.11867 2
      vertex -39.6722 3.11867 2
    endloop
  endfacet
  facet normal 0 0 1
    outer loop
      vertex -33.0296 -8.91774 2
      vertex -34.7082 -7.05342 2
      vertex -39.6722 -3.11867 2
    endloop
  endfacet
  facet normal 0 0 1
    outer loop
      vertex -34.7082 -7.05342 2
      vertex -35.9625 -4.88084 2
      vertex -39.6722 -3.11867 2
    endloop
  endfacet
  facet normal 0 0 1
    outer loop
      vertex -27.5 15 16
      vertex -27.5 8 16
      vertex -23.5 8 16
    endloop
  endfacet
  facet normal 0 0 1
    outer loop
      vertex 23.5 13 16
      vertex -27.5 15 16
      vertex -23.5 13 16
    endloop
  endfacet
  facet normal 0 0 1
    outer loop
      vertex -23.5 13 16
      vertex -27.5 15 16
      vertex -23.5 8 16
    endloop
  endfacet
  facet normal 0 0 1
    outer loop
      vertex 27.5 15 16
      vertex -27.5 15 16
      vertex 23.5 13 16
    endloop
  endfacet
  facet normal 0 0 1
    outer loop
      vertex 27.5 8 16
      vertex 23.5 13 16
      vertex 23.5 8 16
    endloop
  endfacet
  facet normal 0 0 1
    outer loop
      vertex 27.5 15 16
      vertex 23.5 13 16
      vertex 27.5 8 16
    endloop
  endfacet
  facet normal 0 -1 0
    outer loop
      vertex -24 8 13.5
      vertex -23.5 8 13.5
      vertex -23.5 8 16
    endloop
  endfacet
  facet normal 0 -1 0
    outer loop
      vertex -27.5 8 13.5
      vertex -24 8 13.5
      vertex -27.5 8 16
    endloop
  endfacet
  facet normal 0 -1 0
    outer loop
      vertex -27.5 8 16
      vertex -24 8 13.5
      vertex -23.5 8 16
    endloop
  endfacet
  facet normal 0 0 1
    outer loop
      vertex -27.5 8 13.5
      vertex -27.5 -8 13.5
      vertex -24 -8 13.5
    endloop
  endfacet
  facet normal 0 0 1
    outer loop
      vertex -24 8 13.5
      vertex -27.5 8 13.5
      vertex -24 -8 13.5
    endloop
  endfacet
  facet normal 0 1 0
    outer loop
      vertex -23.5 -8 16
      vertex -23.5 -8 13.5
      vertex -27.5 -8 16
    endloop
  endfacet
  facet normal 0 1 0
    outer loop
      vertex -27.5 -8 16
      vertex -23.5 -8 13.5
      vertex -24 -8 13.5
    endloop
  endfacet
  facet normal 0 1 0
    outer loop
      vertex -27.5 -8 16
      vertex -24 -8 13.5
      vertex -27.5 -8 13.5
    endloop
  endfacet
  facet normal 0 0 1
    outer loop
      vertex -23.5 -13 16
      vertex -27.5 -15 16
      vertex 27.5 -15 16
    endloop
  endfacet
  facet normal 0 0 1
    outer loop
      vertex -23.5 -13 16
      vertex -23.5 -8 16
      vertex -27.5 -8 16
    endloop
  endfacet
  facet normal 0 0 1
    outer loop
      vertex 27.5 -8 16
      vertex 23.5 -8 16
      vertex 27.5 -15 16
    endloop
  endfacet
  facet normal 0 0 1
    outer loop
      vertex 23.5 -8 16
      vertex 23.5 -13 16
      vertex 27.5 -15 16
    endloop
  endfacet
  facet normal 0 0 1
    outer loop
      vertex -27.5 -8 16
      vertex -27.5 -15 16
      vertex -23.5 -13 16
    endloop
  endfacet
  facet normal 0 0 1
    outer loop
      vertex 23.5 -13 16
      vertex -23.5 -13 16
      vertex 27.5 -15 16
    endloop
  endfacet
  facet normal 0 1 0
    outer loop
      vertex 27.5 -8 16
      vertex 27.5 -8 13.5
      vertex 23.5 -8 16
    endloop
  endfacet
  facet normal 0 1 0
    outer loop
      vertex 23.5 -8 16
      vertex 27.5 -8 13.5
      vertex 24 -8 13.5
    endloop
  endfacet
  facet normal 0 1 0
    outer loop
      vertex 23.5 -8 16
      vertex 24 -8 13.5
      vertex 23.5 -8 13.5
    endloop
  endfacet
  facet normal 0 0 1
    outer loop
      vertex 24 8 13.5
      vertex 24 -8 13.5
      vertex 27.5 -8 13.5
    endloop
  endfacet
  facet normal 0 0 1
    outer loop
      vertex 27.5 8 13.5
      vertex 24 8 13.5
      vertex 27.5 -8 13.5
    endloop
  endfacet
  facet normal 0 -1 0
    outer loop
      vertex 24 8 13.5
      vertex 27.5 8 13.5
      vertex 27.5 8 16
    endloop
  endfacet
  facet normal 0 -1 0
    outer loop
      vertex 23.5 8 13.5
      vertex 24 8 13.5
      vertex 23.5 8 16
    endloop
  endfacet
  facet normal 0 -1 0
    outer loop
      vertex 23.5 8 16
      vertex 24 8 13.5
      vertex 27.5 8 16
    endloop
  endfacet
  facet normal -1 0 0
    outer loop
      vertex 23.5 13 16
      vertex 23.5 13 13.5
      vertex 23.5 8 16
    endloop
  endfacet
  facet normal -1 0 0
    outer loop
      vertex 23.5 8 16
      vertex 23.5 13 13.5
      vertex 23.5 8 13.5
    endloop
  endfacet
  facet normal 0 -1 0
    outer loop
      vertex -23.5 13 11.5
      vertex -23.5 13 2
      vertex -17.5216 13 2
    endloop
  endfacet
  facet normal 0 -1 0
    outer loop
      vertex 23.5 13 11.5
      vertex -23.5 13 11.5
      vertex 23.5 13 2
    endloop
  endfacet
  facet normal 0 -1 0
    outer loop
      vertex 23.5 13 2
      vertex -23.5 13 11.5
      vertex -17.5216 13 2
    endloop
  endfacet
  facet normal 0 -1 0
    outer loop
      vertex 24 13 13.5
      vertex -23.5 13 11.5
      vertex 23.5 13 11.5
    endloop
  endfacet
  facet normal 0 -1 0
    outer loop
      vertex 24 13 13.5
      vertex 23.5 13 11.5
      vertex 24 13 11.5
    endloop
  endfacet
  facet normal 0 -1 0
    outer loop
      vertex 23.5 13 13.5
      vertex -23.5 13 11.5
      vertex 24 13 13.5
    endloop
  endfacet
  facet normal 0 -1 0
    outer loop
      vertex 23.5 13 16
      vertex -23.5 13 11.5
      vertex 23.5 13 13.5
    endloop
  endfacet
  facet normal 0 -1 0
    outer loop
      vertex -23.5 13 13.5
      vertex -23.5 13 11.5
      vertex 23.5 13 16
    endloop
  endfacet
  facet normal 0 -1 0
    outer loop
      vertex -24 13 13.5
      vertex -23.5 13 11.5
      vertex -23.5 13 13.5
    endloop
  endfacet
  facet normal 0 -1 0
    outer loop
      vertex -23.5 13 16
      vertex -23.5 13 13.5
      vertex 23.5 13 16
    endloop
  endfacet
  facet normal 0 -1 0
    outer loop
      vertex -24 13 11.5
      vertex -23.5 13 11.5
      vertex -24 13 13.5
    endloop
  endfacet
  facet normal 1 0 0
    outer loop
      vertex -23.5 13 13.5
      vertex -23.5 13 16
      vertex -23.5 8 16
    endloop
  endfacet
  facet normal 1 0 0
    outer loop
      vertex -23.5 8 13.5
      vertex -23.5 13 13.5
      vertex -23.5 8 16
    endloop
  endfacet
  facet normal 0 0 -1
    outer loop
      vertex -23.5 13 13.5
      vertex -23.5 8 13.5
      vertex -24 13 13.5
    endloop
  endfacet
  facet normal 0 0 -1
    outer loop
      vertex -24 13 13.5
      vertex -23.5 8 13.5
      vertex -24 8 13.5
    endloop
  endfacet
  facet normal 1 0 0
    outer loop
      vertex -24 13 11.5
      vertex -24 13 13.5
      vertex -24 8 13.5
    endloop
  endfacet
  facet normal 1 0 0
    outer loop
      vertex -24 -13 13.5
      vertex -24 13 11.5
      vertex -24 -8 13.5
    endloop
  endfacet
  facet normal 1 0 0
    outer loop
      vertex -24 -8 13.5
      vertex -24 13 11.5
      vertex -24 8 13.5
    endloop
  endfacet
  facet normal 1 0 0
    outer loop
      vertex -24 -13 11.5
      vertex -24 13 11.5
      vertex -24 -13 13.5
    endloop
  endfacet
  facet normal 0 0 -1
    outer loop
      vertex -23.5 -8 13.5
      vertex -23.5 -13 13.5
      vertex -24 -8 13.5
    endloop
  endfacet
  facet normal 0 0 -1
    outer loop
      vertex -24 -8 13.5
      vertex -23.5 -13 13.5
      vertex -24 -13 13.5
    endloop
  endfacet
  facet normal 1 0 0
    outer loop
      vertex -23.5 -8 13.5
      vertex -23.5 -8 16
      vertex -23.5 -13 16
    endloop
  endfacet
  facet normal 1 0 0
    outer loop
      vertex -23.5 -13 13.5
      vertex -23.5 -8 13.5
      vertex -23.5 -13 16
    endloop
  endfacet
  facet normal 0 1 0
    outer loop
      vertex -23.5 -13 13.5
      vertex -23.5 -13 16
      vertex 23.5 -13 16
    endloop
  endfacet
  facet normal 0 1 0
    outer loop
      vertex -23.5 -13 13.5
      vertex 23.5 -13 16
      vertex 23.5 -13 13.5
    endloop
  endfacet
  facet normal 0 1 0
    outer loop
      vertex -23.5 -13 13.5
      vertex 24 -13 11.5
      vertex -24 -13 13.5
    endloop
  endfacet
  facet normal 0 1 0
    outer loop
      vertex 23.5 -13 13.5
      vertex 24 -13 13.5
      vertex 24 -13 11.5
    endloop
  endfacet
  facet normal 0 1 0
    outer loop
      vertex 23.5 -13 13.5
      vertex 24 -13 11.5
      vertex -23.5 -13 13.5
    endloop
  endfacet
  facet normal 0 1 0
    outer loop
      vertex 24 -13 11.5
      vertex 23.5 -13 11.5
      vertex -24 -13 13.5
    endloop
  endfacet
  facet normal 0 1 0
    outer loop
      vertex 23.5 -13 11.5
      vertex 23.5 -13 2
      vertex -24 -13 13.5
    endloop
  endfacet
  facet normal 0 1 0
    outer loop
      vertex 23.5 -13 2
      vertex -17.5216 -13 2
      vertex -24 -13 13.5
    endloop
  endfacet
  facet normal 0 1 0
    outer loop
      vertex -17.5216 -13 2
      vertex -23.5 -13 2
      vertex -23.5 -13 11.5
    endloop
  endfacet
  facet normal 0 1 0
    outer loop
      vertex -17.5216 -13 2
      vertex -23.5 -13 11.5
      vertex -24 -13 13.5
    endloop
  endfacet
  facet normal 0 1 0
    outer loop
      vertex -24 -13 11.5
      vertex -24 -13 13.5
      vertex -23.5 -13 11.5
    endloop
  endfacet
  facet normal -1 0 0
    outer loop
      vertex 23.5 -8 16
      vertex 23.5 -8 13.5
      vertex 23.5 -13 16
    endloop
  endfacet
  facet normal -1 0 0
    outer loop
      vertex 23.5 -13 16
      vertex 23.5 -8 13.5
      vertex 23.5 -13 13.5
    endloop
  endfacet
  facet normal 0 0 -1
    outer loop
      vertex 24 -8 13.5
      vertex 24 -13 13.5
      vertex 23.5 -8 13.5
    endloop
  endfacet
  facet normal 0 0 -1
    outer loop
      vertex 23.5 -8 13.5
      vertex 24 -13 13.5
      vertex 23.5 -13 13.5
    endloop
  endfacet
  facet normal -1 0 0
    outer loop
      vertex 24 8 13.5
      vertex 24 13 11.5
      vertex 24 -8 13.5
    endloop
  endfacet
  facet normal -1 0 0
    outer loop
      vertex 24 -8 13.5
      vertex 24 13 11.5
      vertex 24 -13 13.5
    endloop
  endfacet
  facet normal -1 0 0
    outer loop
      vertex 24 13 13.5
      vertex 24 13 11.5
      vertex 24 8 13.5
    endloop
  endfacet
  facet normal -1 0 0
    outer loop
      vertex 24 -13 13.5
      vertex 24 13 11.5
      vertex 24 5.7267 11.5
    endloop
  endfacet
  facet normal -1 0 0
    outer loop
      vertex 24 -13 13.5
      vertex 24 5.7267 11.5
      vertex 24 -5.7267 11.5
    endloop
  endfacet
  facet normal -1 0 0
    outer loop
      vertex 24 -13 13.5
      vertex 24 -5.7267 11.5
      vertex 24 -13 11.5
    endloop
  endfacet
  facet normal 0 0 -1
    outer loop
      vertex 24 13 13.5
      vertex 24 8 13.5
      vertex 23.5 13 13.5
    endloop
  endfacet
  facet normal 0 0 -1
    outer loop
      vertex 23.5 13 13.5
      vertex 24 8 13.5
      vertex 23.5 8 13.5
    endloop
  endfacet
  facet normal 0 0 1
    outer loop
      vertex -23.5 -13 11.5
      vertex -23.5 13 11.5
      vertex -24 13 11.5
    endloop
  endfacet
  facet normal 0 0 1
    outer loop
      vertex -24 -13 11.5
      vertex -23.5 -13 11.5
      vertex -24 13 11.5
    endloop
  endfacet
  facet normal 1 0 0
    outer loop
      vertex -23.5 11.882 2
      vertex -23.5 13 2
      vertex -23.5 13 11.5
    endloop
  endfacet
  facet normal 1 0 0
    outer loop
      vertex -23.5 -11.882 2
      vertex -23.5 11.882 2
      vertex -23.5 13 11.5
    endloop
  endfacet
  facet normal 1 0 0
    outer loop
      vertex -23.5 -13 11.5
      vertex -23.5 -11.882 2
      vertex -23.5 13 11.5
    endloop
  endfacet
  facet normal 1 0 0
    outer loop
      vertex -23.5 -13 2
      vertex -23.5 -11.882 2
      vertex -23.5 -13 11.5
    endloop
  endfacet
  facet normal 0 0 1
    outer loop
      vertex 24 5.7267 11.5
      vertex 24 13 11.5
      vertex 23.5 13 11.5
    endloop
  endfacet
  facet normal 0 0 1
    outer loop
      vertex 23.5 6.59272 11.5
      vertex 24 5.7267 11.5
      vertex 23.5 13 11.5
    endloop
  endfacet
  facet normal -1 0 0
    outer loop
      vertex 23.5 13 11.5
      vertex 23.5 13 2
      vertex 23.5 6.59272 11.5
    endloop
  endfacet
  facet normal -1 0 0
    outer loop
      vertex 23.5 6.59272 11.5
      vertex 23.5 13 2
      vertex 23.5 6.59272 2
    endloop
  endfacet
  facet normal 0 0 1
    outer loop
      vertex 25.3487 -2.39098 2
      vertex 23.5 -6.59272 2
      vertex 24.6058 -4.67747 2
    endloop
  endfacet
  facet normal 0 0 1
    outer loop
      vertex 25.3487 -2.39098 2
      vertex 25.6 0 2
      vertex 23.5 -6.59272 2
    endloop
  endfacet
  facet normal 0 0 1
    outer loop
      vertex 25.6 0 2
      vertex 25.3487 2.39098 2
      vertex 23.5 -6.59272 2
    endloop
  endfacet
  facet normal 0 0 1
    outer loop
      vertex 25.3487 2.39098 2
      vertex 24.6058 4.67747 2
      vertex 23.5 -6.59272 2
    endloop
  endfacet
  facet normal 0 0 1
    outer loop
      vertex 24.6058 4.67747 2
      vertex 23.5 6.59272 2
      vertex 23.5 -6.59272 2
    endloop
  endfacet
  facet normal 0 0 1
    outer loop
      vertex -14.963 11.1472 2
      vertex -12.8647 8.81678 2
      vertex 23.5 -13 2
    endloop
  endfacet
  facet normal 0 0 1
    outer loop
      vertex 23.5 13 2
      vertex -17.5216 13 2
      vertex 23.5 6.59272 2
    endloop
  endfacet
  facet normal 0 0 1
    outer loop
      vertex 23.5 6.59272 2
      vertex -17.5 12.9904 2
      vertex 23.5 -6.59272 2
    endloop
  endfacet
  facet normal 0 0 1
    outer loop
      vertex 23.5 6.59272 2
      vertex -17.5216 13 2
      vertex -17.5 12.9904 2
    endloop
  endfacet
  facet normal 0 0 1
    outer loop
      vertex -12.8647 8.81678 2
      vertex -11.2968 6.10105 2
      vertex 23.5 -13 2
    endloop
  endfacet
  facet normal 0 0 1
    outer loop
      vertex -11.2968 6.10105 2
      vertex -10.3278 3.11867 2
      vertex 23.5 -13 2
    endloop
  endfacet
  facet normal 0 0 1
    outer loop
      vertex -10.3278 3.11867 2
      vertex -10 0 2
      vertex 23.5 -13 2
    endloop
  endfacet
  facet normal 0 0 1
    outer loop
      vertex -10 0 2
      vertex -10.3278 -3.11867 2
      vertex 23.5 -13 2
    endloop
  endfacet
  facet normal 0 0 1
    outer loop
      vertex -10.3278 -3.11867 2
      vertex -11.2968 -6.10105 2
      vertex 23.5 -13 2
    endloop
  endfacet
  facet normal 0 0 1
    outer loop
      vertex -11.2968 -6.10105 2
      vertex -12.8647 -8.81678 2
      vertex 23.5 -13 2
    endloop
  endfacet
  facet normal 0 0 1
    outer loop
      vertex -12.8647 -8.81678 2
      vertex -14.963 -11.1472 2
      vertex 23.5 -13 2
    endloop
  endfacet
  facet normal 0 0 1
    outer loop
      vertex -14.963 -11.1472 2
      vertex -17.5 -12.9904 2
      vertex 23.5 -13 2
    endloop
  endfacet
  facet normal 0 0 1
    outer loop
      vertex -17.5 -12.9904 2
      vertex -17.5216 -13 2
      vertex 23.5 -13 2
    endloop
  endfacet
  facet normal 0 0 1
    outer loop
      vertex -17.5 12.9904 2
      vertex 23.5 -13 2
      vertex 23.5 -6.59272 2
    endloop
  endfacet
  facet normal 0 0 1
    outer loop
      vertex -17.5 12.9904 2
      vertex -14.963 11.1472 2
      vertex 23.5 -13 2
    endloop
  endfacet
  facet normal 0 0 1
    outer loop
      vertex -17.5216 -13 2
      vertex -17.5 -12.9904 2
      vertex -14.963 -11.1472 2
    endloop
  endfacet
  facet normal 0 0 1
    outer loop
      vertex -11.2968 -6.10105 2
      vertex -17.5216 -13 2
      vertex -12.8647 -8.81678 2
    endloop
  endfacet
  facet normal 0 0 1
    outer loop
      vertex -12.8647 -8.81678 2
      vertex -17.5216 -13 2
      vertex -14.963 -11.1472 2
    endloop
  endfacet
  facet normal 0 0 1
    outer loop
      vertex -10.3278 -3.11867 2
      vertex -17.5216 -13 2
      vertex -11.2968 -6.10105 2
    endloop
  endfacet
  facet normal 0 0 1
    outer loop
      vertex -10 0 2
      vertex -17.5216 -13 2
      vertex -10.3278 -3.11867 2
    endloop
  endfacet
  facet normal 0 0 1
    outer loop
      vertex -10.3278 3.11867 2
      vertex -17.5216 -13 2
      vertex -10 0 2
    endloop
  endfacet
  facet normal 0 0 1
    outer loop
      vertex -14.0375 -4.88084 2
      vertex -17.5216 -13 2
      vertex -10.3278 3.11867 2
    endloop
  endfacet
  facet normal 0 0 1
    outer loop
      vertex -14.0375 -4.88084 2
      vertex -15.2918 -7.05342 2
      vertex -17.5216 -13 2
    endloop
  endfacet
  facet normal 0 0 1
    outer loop
      vertex -13.2622 2.49494 2
      vertex -13 0 2
      vertex -11.2968 6.10105 2
    endloop
  endfacet
  facet normal 0 0 1
    outer loop
      vertex -14.0375 4.88084 2
      vertex -13.2622 2.49494 2
      vertex -12.8647 8.81678 2
    endloop
  endfacet
  facet normal 0 0 1
    outer loop
      vertex -16.9704 8.91774 2
      vertex -15.2918 7.05342 2
      vertex -14.963 11.1472 2
    endloop
  endfacet
  facet normal 0 0 1
    outer loop
      vertex -19 10.3923 2
      vertex -17.5 12.9904 2
      vertex -17.5216 13 2
    endloop
  endfacet
  facet normal 0 0 1
    outer loop
      vertex -23.5 13 2
      vertex -21.2918 11.4127 2
      vertex -17.5216 13 2
    endloop
  endfacet
  facet normal 0 0 1
    outer loop
      vertex -21.2918 11.4127 2
      vertex -19 10.3923 2
      vertex -17.5216 13 2
    endloop
  endfacet
  facet normal 0 0 1
    outer loop
      vertex -17.5 12.9904 2
      vertex -16.9704 8.91774 2
      vertex -14.963 11.1472 2
    endloop
  endfacet
  facet normal 0 0 1
    outer loop
      vertex -14.963 11.1472 2
      vertex -15.2918 7.05342 2
      vertex -12.8647 8.81678 2
    endloop
  endfacet
  facet normal 0 0 1
    outer loop
      vertex -15.2918 7.05342 2
      vertex -14.0375 4.88084 2
      vertex -12.8647 8.81678 2
    endloop
  endfacet
  facet normal 0 0 1
    outer loop
      vertex -12.8647 8.81678 2
      vertex -13.2622 2.49494 2
      vertex -11.2968 6.10105 2
    endloop
  endfacet
  facet normal 0 0 1
    outer loop
      vertex -11.2968 6.10105 2
      vertex -13 0 2
      vertex -10.3278 3.11867 2
    endloop
  endfacet
  facet normal 0 0 1
    outer loop
      vertex -13 0 2
      vertex -13.2622 -2.49494 2
      vertex -10.3278 3.11867 2
    endloop
  endfacet
  facet normal 0 0 1
    outer loop
      vertex -13.2622 -2.49494 2
      vertex -14.0375 -4.88084 2
      vertex -10.3278 3.11867 2
    endloop
  endfacet
  facet normal 0 0 1
    outer loop
      vertex -21.2918 -11.4127 2
      vertex -17.5216 -13 2
      vertex -19 -10.3923 2
    endloop
  endfacet
  facet normal 0 0 1
    outer loop
      vertex -23.5 -11.882 2
      vertex -17.5216 -13 2
      vertex -21.2918 -11.4127 2
    endloop
  endfacet
  facet normal 0 0 1
    outer loop
      vertex -23.5 -13 2
      vertex -17.5216 -13 2
      vertex -23.5 -11.882 2
    endloop
  endfacet
  facet normal 0 0 1
    outer loop
      vertex -23.5 11.882 2
      vertex -21.2918 11.4127 2
      vertex -23.5 13 2
    endloop
  endfacet
  facet normal 0 0 1
    outer loop
      vertex -19 10.3923 2
      vertex -16.9704 8.91774 2
      vertex -17.5 12.9904 2
    endloop
  endfacet
  facet normal 0 0 1
    outer loop
      vertex -15.2918 -7.05342 2
      vertex -16.9704 -8.91774 2
      vertex -17.5216 -13 2
    endloop
  endfacet
  facet normal 0 0 1
    outer loop
      vertex -16.9704 -8.91774 2
      vertex -19 -10.3923 2
      vertex -17.5216 -13 2
    endloop
  endfacet
  facet normal -1 0 0
    outer loop
      vertex 23.5 -6.59272 11.5
      vertex 23.5 -6.59272 2
      vertex 23.5 -13 11.5
    endloop
  endfacet
  facet normal -1 0 0
    outer loop
      vertex 23.5 -13 11.5
      vertex 23.5 -6.59272 2
      vertex 23.5 -13 2
    endloop
  endfacet
  facet normal 0 0 1
    outer loop
      vertex 24 -13 11.5
      vertex 24 -5.7267 11.5
      vertex 23.5 -6.59272 11.5
    endloop
  endfacet
  facet normal 0 0 1
    outer loop
      vertex 23.5 -13 11.5
      vertex 24 -13 11.5
      vertex 23.5 -6.59272 11.5
    endloop
  endfacet
  facet normal -0.866025 0.5 0
    outer loop
      vertex 24.6058 -4.67747 11.5
      vertex 24.6058 -4.67747 2
      vertex 24 -5.7267 11.5
    endloop
  endfacet
  facet normal -0.866025 0.5 0
    outer loop
      vertex 24 -5.7267 11.5
      vertex 24.6058 -4.67747 2
      vertex 23.5 -6.59272 11.5
    endloop
  endfacet
  facet normal -0.866025 0.5 0
    outer loop
      vertex 23.5 -6.59272 11.5
      vertex 24.6058 -4.67747 2
      vertex 23.5 -6.59272 2
    endloop
  endfacet
  facet normal 0 0 -1
    outer loop
      vertex 24 -5.7267 11.5
      vertex 24 5.7267 11.5
      vertex 24.6058 -4.67747 11.5
    endloop
  endfacet
  facet normal 0 0 -1
    outer loop
      vertex 24.6058 -4.67747 11.5
      vertex 24 5.7267 11.5
      vertex 24.6058 4.67747 11.5
    endloop
  endfacet
  facet normal 0 0 -1
    outer loop
      vertex 24.6058 -4.67747 11.5
      vertex 24.6058 4.67747 11.5
      vertex 25.3487 2.39098 11.5
    endloop
  endfacet
  facet normal 0 0 -1
    outer loop
      vertex 24.6058 -4.67747 11.5
      vertex 25.3487 2.39098 11.5
      vertex 25.6 0 11.5
    endloop
  endfacet
  facet normal 0 0 -1
    outer loop
      vertex 24.6058 -4.67747 11.5
      vertex 25.6 0 11.5
      vertex 25.3487 -2.39098 11.5
    endloop
  endfacet
  facet normal -0.866025 -0.5 0
    outer loop
      vertex 24.6058 4.67747 11.5
      vertex 24 5.7267 11.5
      vertex 24.6058 4.67747 2
    endloop
  endfacet
  facet normal -0.866025 -0.5 0
    outer loop
      vertex 24.6058 4.67747 2
      vertex 24 5.7267 11.5
      vertex 23.5 6.59272 11.5
    endloop
  endfacet
  facet normal -0.866025 -0.5 0
    outer loop
      vertex 24.6058 4.67747 2
      vertex 23.5 6.59272 11.5
      vertex 23.5 6.59272 2
    endloop
  endfacet
  facet normal 0 0 1
    outer loop
      vertex -21.2918 -11.4127 2
      vertex -19 -10.3923 2
      vertex -16.9704 -8.91774 2
    endloop
  endfacet
  facet normal 0 0 1
    outer loop
      vertex -14.0375 -4.88084 2
      vertex -21.2918 -11.4127 2
      vertex -15.2918 -7.05342 2
    endloop
  endfacet
  facet normal 0 0 1
    outer loop
      vertex -15.2918 -7.05342 2
      vertex -21.2918 -11.4127 2
      vertex -16.9704 -8.91774 2
    endloop
  endfacet
  facet normal 0 0 1
    outer loop
      vertex -13.2622 -2.49494 2
      vertex -21.2918 -11.4127 2
      vertex -14.0375 -4.88084 2
    endloop
  endfacet
  facet normal 0 0 1
    outer loop
      vertex -13 0 2
      vertex -21.2918 -11.4127 2
      vertex -13.2622 -2.49494 2
    endloop
  endfacet
  facet normal 0 0 1
    outer loop
      vertex -13.2622 2.49494 2
      vertex -21.2918 -11.4127 2
      vertex -13 0 2
    endloop
  endfacet
  facet normal 0 0 1
    outer loop
      vertex -14.0375 4.88084 2
      vertex -21.2918 -11.4127 2
      vertex -13.2622 2.49494 2
    endloop
  endfacet
  facet normal 0 0 1
    outer loop
      vertex -15.2918 7.05342 2
      vertex -21.2918 -11.4127 2
      vertex -14.0375 4.88084 2
    endloop
  endfacet
  facet normal 0 0 1
    outer loop
      vertex -16.9704 8.91774 2
      vertex -21.2918 -11.4127 2
      vertex -15.2918 7.05342 2
    endloop
  endfacet
  facet normal 0 0 1
    outer loop
      vertex -19 10.3923 2
      vertex -21.2918 -11.4127 2
      vertex -16.9704 8.91774 2
    endloop
  endfacet
  facet normal 0 0 1
    outer loop
      vertex -21.2918 11.4127 2
      vertex -21.2918 -11.4127 2
      vertex -19 10.3923 2
    endloop
  endfacet
  facet normal 0 0 1
    outer loop
      vertex -23.5 11.882 2
      vertex -21.2918 -11.4127 2
      vertex -21.2918 11.4127 2
    endloop
  endfacet
  facet normal 0 0 1
    outer loop
      vertex -23.5 -11.882 2
      vertex -21.2918 -11.4127 2
      vertex -23.5 11.882 2
    endloop
  endfacet
  facet normal -0.951057 -0.309017 0
    outer loop
      vertex 25.3487 2.39098 11.5
      vertex 24.6058 4.67747 11.5
      vertex 25.3487 2.39098 2
    endloop
  endfacet
  facet normal -0.951057 -0.309017 0
    outer loop
      vertex 25.3487 2.39098 2
      vertex 24.6058 4.67747 11.5
      vertex 24.6058 4.67747 2
    endloop
  endfacet
  facet normal -0.994522 -0.104529 0
    outer loop
      vertex 25.6 0 11.5
      vertex 25.3487 2.39098 11.5
      vertex 25.6 0 2
    endloop
  endfacet
  facet normal -0.994522 -0.104529 0
    outer loop
      vertex 25.6 0 2
      vertex 25.3487 2.39098 11.5
      vertex 25.3487 2.39098 2
    endloop
  endfacet
  facet normal -0.994522 0.104529 0
    outer loop
      vertex 25.6 0 11.5
      vertex 25.6 0 2
      vertex 25.3487 -2.39098 11.5
    endloop
  endfacet
  facet normal -0.994522 0.104529 0
    outer loop
      vertex 25.3487 -2.39098 11.5
      vertex 25.6 0 2
      vertex 25.3487 -2.39098 2
    endloop
  endfacet
  facet normal -0.951057 0.309017 0
    outer loop
      vertex 25.3487 -2.39098 11.5
      vertex 25.3487 -2.39098 2
      vertex 24.6058 -4.67747 11.5
    endloop
  endfacet
  facet normal -0.951057 0.309017 0
    outer loop
      vertex 24.6058 -4.67747 11.5
      vertex 25.3487 -2.39098 2
      vertex 24.6058 -4.67747 2
    endloop
  endfacet
endsolid OpenSCAD_Model
