solid OpenSCAD_Model
  facet normal 0 0 -1
    outer loop
      vertex -40 0 -0.5
      vertex -39.6722 3.11867 -0.5
      vertex -39.6722 -3.11867 -0.5
    endloop
  endfacet
  facet normal 0 0 -1
    outer loop
      vertex -39.6722 -3.11867 -0.5
      vertex -39.6722 3.11867 -0.5
      vertex -38.7032 6.10105 -0.5
    endloop
  endfacet
  facet normal 0 0 -1
    outer loop
      vertex -39.6722 -3.11867 -0.5
      vertex -38.7032 6.10105 -0.5
      vertex -37.1353 8.81678 -0.5
    endloop
  endfacet
  facet normal 0 0 -1
    outer loop
      vertex -39.6722 -3.11867 -0.5
      vertex -37.1353 8.81678 -0.5
      vertex -35.037 11.1472 -0.5
    endloop
  endfacet
  facet normal 0 0 -1
    outer loop
      vertex -39.6722 -3.11867 -0.5
      vertex -35.037 11.1472 -0.5
      vertex -32.5 12.9904 -0.5
    endloop
  endfacet
  facet normal 0 0 -1
    outer loop
      vertex -33.0296 8.91774 -0.5
      vertex -32.5 12.9904 -0.5
      vertex -29.6353 14.2658 -0.5
    endloop
  endfacet
  facet normal 0 0 -1
    outer loop
      vertex -31 10.3923 -0.5
      vertex -29.6353 14.2658 -0.5
      vertex -27.5 14.7197 -0.5
    endloop
  endfacet
  facet normal 0 0 -1
    outer loop
      vertex -27.5 14.7197 -0.5
      vertex -27.5 15 -0.5
      vertex 27.5 15 -0.5
    endloop
  endfacet
  facet normal 0 0 -1
    outer loop
      vertex 26.1 0 -0.5
      vertex 27.5 15 -0.5
      vertex 27.5 -15 -0.5
    endloop
  endfacet
  facet normal 0 0 -1
    outer loop
      vertex -27.5 -14.7197 -0.5
      vertex 27.5 -15 -0.5
      vertex -27.5 -15 -0.5
    endloop
  endfacet
  facet normal 0 0 -1
    outer loop
      vertex -27.5 -11.6695 -0.5
      vertex 27.5 -15 -0.5
      vertex -27.5 -14.7197 -0.5
    endloop
  endfacet
  facet normal 0 0 -1
    outer loop
      vertex -36.7378 2.49494 -0.5
      vertex -39.6722 -3.11867 -0.5
      vertex -35.9625 4.88084 -0.5
    endloop
  endfacet
  facet normal 0 0 -1
    outer loop
      vertex -37 0 -0.5
      vertex -39.6722 -3.11867 -0.5
      vertex -36.7378 2.49494 -0.5
    endloop
  endfacet
  facet normal 0 0 -1
    outer loop
      vertex -39.6722 -3.11867 -0.5
      vertex -29.6353 -14.2658 -0.5
      vertex -32.5 -12.9904 -0.5
    endloop
  endfacet
  facet normal 0 0 -1
    outer loop
      vertex -39.6722 -3.11867 -0.5
      vertex -32.5 -12.9904 -0.5
      vertex -35.037 -11.1472 -0.5
    endloop
  endfacet
  facet normal 0 0 -1
    outer loop
      vertex -39.6722 -3.11867 -0.5
      vertex -35.037 -11.1472 -0.5
      vertex -37.1353 -8.81678 -0.5
    endloop
  endfacet
  facet normal 0 0 -1
    outer loop
      vertex -39.6722 -3.11867 -0.5
      vertex -37.1353 -8.81678 -0.5
      vertex -38.7032 -6.10105 -0.5
    endloop
  endfacet
  facet normal 0 0 -1
    outer loop
      vertex -31 10.3923 -0.5
      vertex -27.5 14.7197 -0.5
      vertex -28.7082 11.4127 -0.5
    endloop
  endfacet
  facet normal 0 0 -1
    outer loop
      vertex -36.7378 -2.49494 -0.5
      vertex -39.6722 -3.11867 -0.5
      vertex -37 0 -0.5
    endloop
  endfacet
  facet normal 0 0 -1
    outer loop
      vertex -31 -10.3923 -0.5
      vertex -27.5 -14.7197 -0.5
      vertex -33.0296 -8.91774 -0.5
    endloop
  endfacet
  facet normal 0 0 -1
    outer loop
      vertex -39.6722 -3.11867 -0.5
      vertex -35.9625 -4.88084 -0.5
      vertex -34.7082 -7.05342 -0.5
    endloop
  endfacet
  facet normal 0 0 -1
    outer loop
      vertex -27.5 11.6695 -0.5
      vertex 11.0463 10.9371 -0.5
      vertex 8.85 9.95929 -0.5
    endloop
  endfacet
  facet normal 0 0 -1
    outer loop
      vertex -39.6722 -3.11867 -0.5
      vertex -34.7082 -7.05342 -0.5
      vertex -33.0296 -8.91774 -0.5
    endloop
  endfacet
  facet normal 0 0 -1
    outer loop
      vertex -39.6722 -3.11867 -0.5
      vertex -33.0296 -8.91774 -0.5
      vertex -27.5 -14.7197 -0.5
    endloop
  endfacet
  facet normal 0 0 -1
    outer loop
      vertex -27.5 11.6695 -0.5
      vertex 27.5 15 -0.5
      vertex 11.0463 10.9371 -0.5
    endloop
  endfacet
  facet normal 0 0 -1
    outer loop
      vertex -31 -10.3923 -0.5
      vertex -28.7082 -11.4127 -0.5
      vertex -27.5 -14.7197 -0.5
    endloop
  endfacet
  facet normal 0 0 -1
    outer loop
      vertex -28.7082 -11.4127 -0.5
      vertex -27.5 -11.6695 -0.5
      vertex -27.5 -14.7197 -0.5
    endloop
  endfacet
  facet normal 0 0 -1
    outer loop
      vertex -27.5 14.7197 -0.5
      vertex 27.5 15 -0.5
      vertex -27.5 11.6695 -0.5
    endloop
  endfacet
  facet normal 0 0 -1
    outer loop
      vertex -27.5 14.7197 -0.5
      vertex -27.5 11.6695 -0.5
      vertex -28.7082 11.4127 -0.5
    endloop
  endfacet
  facet normal 0 0 -1
    outer loop
      vertex 4.09423 4.67747 -0.5
      vertex -0.75 3.75 -0.5
      vertex 5.29631 6.75953 -0.5
    endloop
  endfacet
  facet normal 0 0 -1
    outer loop
      vertex -34.7082 7.05342 -0.5
      vertex -32.5 12.9904 -0.5
      vertex -33.0296 8.91774 -0.5
    endloop
  endfacet
  facet normal 0 0 -1
    outer loop
      vertex -35.9625 4.88084 -0.5
      vertex -32.5 12.9904 -0.5
      vertex -34.7082 7.05342 -0.5
    endloop
  endfacet
  facet normal 0 0 -1
    outer loop
      vertex -39.6722 -3.11867 -0.5
      vertex -32.5 12.9904 -0.5
      vertex -35.9625 4.88084 -0.5
    endloop
  endfacet
  facet normal 0 0 -1
    outer loop
      vertex 4.09423 -4.67747 -0.5
      vertex 3.75 -3.75 -0.5
      vertex 3.75 -3.61805 -0.5
    endloop
  endfacet
  facet normal 0 0 -1
    outer loop
      vertex 13.3979 11.437 -0.5
      vertex 27.5 15 -0.5
      vertex 15.8021 11.437 -0.5
    endloop
  endfacet
  facet normal 0 0 -1
    outer loop
      vertex 15.8021 -11.437 -0.5
      vertex 27.5 -15 -0.5
      vertex 13.3979 -11.437 -0.5
    endloop
  endfacet
  facet normal 0 0 -1
    outer loop
      vertex 5.29631 -6.75953 -0.5
      vertex -0.75 -3.75 -0.5
      vertex 4.09423 -4.67747 -0.5
    endloop
  endfacet
  facet normal 0 0 -1
    outer loop
      vertex 20.35 -9.95929 -0.5
      vertex 27.5 -15 -0.5
      vertex 18.1537 -10.9371 -0.5
    endloop
  endfacet
  facet normal 0 0 -1
    outer loop
      vertex -0.75 -3.75 -0.5
      vertex 3.75 -3.75 -0.5
      vertex 4.09423 -4.67747 -0.5
    endloop
  endfacet
  facet normal 0 0 -1
    outer loop
      vertex 11.0463 -10.9371 -0.5
      vertex 13.3979 -11.437 -0.5
      vertex 27.5 -15 -0.5
    endloop
  endfacet
  facet normal 0 0 -1
    outer loop
      vertex 18.1537 -10.9371 -0.5
      vertex 27.5 -15 -0.5
      vertex 15.8021 -11.437 -0.5
    endloop
  endfacet
  facet normal 0 0 -1
    outer loop
      vertex 15.8021 11.437 -0.5
      vertex 27.5 15 -0.5
      vertex 18.1537 10.9371 -0.5
    endloop
  endfacet
  facet normal 0 0 -1
    outer loop
      vertex 25.8487 2.39098 -0.5
      vertex 27.5 15 -0.5
      vertex 26.1 0 -0.5
    endloop
  endfacet
  facet normal 0 0 -1
    outer loop
      vertex 23.9037 6.75953 -0.5
      vertex 27.5 15 -0.5
      vertex 25.1058 4.67747 -0.5
    endloop
  endfacet
  facet normal 0 0 -1
    outer loop
      vertex 20.35 -9.95929 -0.5
      vertex 22.295 -8.54617 -0.5
      vertex 27.5 -15 -0.5
    endloop
  endfacet
  facet normal 0 0 -1
    outer loop
      vertex 22.295 -8.54617 -0.5
      vertex 23.9037 -6.75953 -0.5
      vertex 27.5 -15 -0.5
    endloop
  endfacet
  facet normal 0 0 -1
    outer loop
      vertex 25.1058 4.67747 -0.5
      vertex 27.5 15 -0.5
      vertex 25.8487 2.39098 -0.5
    endloop
  endfacet
  facet normal 0 0 -1
    outer loop
      vertex 23.9037 -6.75953 -0.5
      vertex 25.1058 -4.67747 -0.5
      vertex 27.5 -15 -0.5
    endloop
  endfacet
  facet normal 0 0 -1
    outer loop
      vertex 25.1058 -4.67747 -0.5
      vertex 25.8487 -2.39098 -0.5
      vertex 27.5 -15 -0.5
    endloop
  endfacet
  facet normal 0 0 -1
    outer loop
      vertex 25.8487 -2.39098 -0.5
      vertex 26.1 0 -0.5
      vertex 27.5 -15 -0.5
    endloop
  endfacet
  facet normal 0 0 -1
    outer loop
      vertex 22.295 8.54617 -0.5
      vertex 27.5 15 -0.5
      vertex 23.9037 6.75953 -0.5
    endloop
  endfacet
  facet normal 0 0 -1
    outer loop
      vertex 20.35 9.95929 -0.5
      vertex 27.5 15 -0.5
      vertex 22.295 8.54617 -0.5
    endloop
  endfacet
  facet normal 0 0 -1
    outer loop
      vertex 18.1537 10.9371 -0.5
      vertex 27.5 15 -0.5
      vertex 20.35 9.95929 -0.5
    endloop
  endfacet
  facet normal 0 0 -1
    outer loop
      vertex 3.75 3.61805 -0.5
      vertex 3.75 3.75 -0.5
      vertex 4.09423 4.67747 -0.5
    endloop
  endfacet
  facet normal 0 0 -1
    outer loop
      vertex 11.0463 10.9371 -0.5
      vertex 27.5 15 -0.5
      vertex 13.3979 11.437 -0.5
    endloop
  endfacet
  facet normal 0 0 -1
    outer loop
      vertex -35.9625 -4.88084 -0.5
      vertex -39.6722 -3.11867 -0.5
      vertex -36.7378 -2.49494 -0.5
    endloop
  endfacet
  facet normal 0 0 -1
    outer loop
      vertex 6.905 8.54617 -0.5
      vertex 5.29631 6.75953 -0.5
      vertex -0.75 3.75 -0.5
    endloop
  endfacet
  facet normal 0 0 -1
    outer loop
      vertex 3.75 3.75 -0.5
      vertex -0.75 3.75 -0.5
      vertex 4.09423 4.67747 -0.5
    endloop
  endfacet
  facet normal 0 0 -1
    outer loop
      vertex -29.6353 -14.2658 -0.5
      vertex -39.6722 -3.11867 -0.5
      vertex -27.5 -14.7197 -0.5
    endloop
  endfacet
  facet normal 0 0 -1
    outer loop
      vertex -33.0296 8.91774 -0.5
      vertex -29.6353 14.2658 -0.5
      vertex -31 10.3923 -0.5
    endloop
  endfacet
  facet normal 0 0 -1
    outer loop
      vertex -27.5 11.6695 -0.5
      vertex 8.85 9.95929 -0.5
      vertex 6.905 8.54617 -0.5
    endloop
  endfacet
  facet normal 0 0 -1
    outer loop
      vertex -27.5 11.6695 -0.5
      vertex 6.905 8.54617 -0.5
      vertex -0.75 3.75 -0.5
    endloop
  endfacet
  facet normal 0 0 -1
    outer loop
      vertex -27.5 11.6695 -0.5
      vertex -0.75 3.75 -0.5
      vertex -0.75 -3.75 -0.5
    endloop
  endfacet
  facet normal 0 0 -1
    outer loop
      vertex -0.75 -3.75 -0.5
      vertex 5.29631 -6.75953 -0.5
      vertex 6.905 -8.54617 -0.5
    endloop
  endfacet
  facet normal 0 0 -1
    outer loop
      vertex -27.5 11.6695 -0.5
      vertex -0.75 -3.75 -0.5
      vertex 6.905 -8.54617 -0.5
    endloop
  endfacet
  facet normal 0 0 -1
    outer loop
      vertex -27.5 11.6695 -0.5
      vertex 6.905 -8.54617 -0.5
      vertex 8.85 -9.95929 -0.5
    endloop
  endfacet
  facet normal 0 0 -1
    outer loop
      vertex 11.0463 -10.9371 -0.5
      vertex 27.5 -15 -0.5
      vertex -27.5 -11.6695 -0.5
    endloop
  endfacet
  facet normal 0 0 -1
    outer loop
      vertex 8.85 -9.95929 -0.5
      vertex 11.0463 -10.9371 -0.5
      vertex -27.5 -11.6695 -0.5
    endloop
  endfacet
  facet normal 0 0 -1
    outer loop
      vertex -27.5 11.6695 -0.5
      vertex 8.85 -9.95929 -0.5
      vertex -27.5 -11.6695 -0.5
    endloop
  endfacet
  facet normal -0.994522 0.104528 0
    outer loop
      vertex -40 0 -0.5
      vertex -40 0 1.5
      vertex -39.6722 3.11867 -0.5
    endloop
  endfacet
  facet normal -0.994522 0.104528 0
    outer loop
      vertex -39.6722 3.11867 -0.5
      vertex -40 0 1.5
      vertex -39.6722 3.11867 1.5
    endloop
  endfacet
  facet normal -0.994522 -0.104528 0
    outer loop
      vertex -40 0 -0.5
      vertex -39.6722 -3.11867 -0.5
      vertex -40 0 1.5
    endloop
  endfacet
  facet normal -0.994522 -0.104528 0
    outer loop
      vertex -40 0 1.5
      vertex -39.6722 -3.11867 -0.5
      vertex -39.6722 -3.11867 1.5
    endloop
  endfacet
  facet normal -0.951057 -0.309017 0
    outer loop
      vertex -39.6722 -3.11867 -0.5
      vertex -38.7032 -6.10105 -0.5
      vertex -39.6722 -3.11867 1.5
    endloop
  endfacet
  facet normal -0.951057 -0.309017 0
    outer loop
      vertex -39.6722 -3.11867 1.5
      vertex -38.7032 -6.10105 -0.5
      vertex -38.7032 -6.10105 1.5
    endloop
  endfacet
  facet normal -0.866025 -0.5 0
    outer loop
      vertex -38.7032 -6.10105 -0.5
      vertex -37.1353 -8.81678 -0.5
      vertex -38.7032 -6.10105 1.5
    endloop
  endfacet
  facet normal -0.866025 -0.5 0
    outer loop
      vertex -38.7032 -6.10105 1.5
      vertex -37.1353 -8.81678 -0.5
      vertex -37.1353 -8.81678 1.5
    endloop
  endfacet
  facet normal -0.743145 -0.669131 0
    outer loop
      vertex -37.1353 -8.81678 -0.5
      vertex -35.037 -11.1472 -0.5
      vertex -37.1353 -8.81678 1.5
    endloop
  endfacet
  facet normal -0.743145 -0.669131 0
    outer loop
      vertex -37.1353 -8.81678 1.5
      vertex -35.037 -11.1472 -0.5
      vertex -35.037 -11.1472 1.5
    endloop
  endfacet
  facet normal -0.587785 -0.809017 0
    outer loop
      vertex -35.037 -11.1472 1.5
      vertex -35.037 -11.1472 -0.5
      vertex -32.5 -12.9904 -0.5
    endloop
  endfacet
  facet normal -0.587785 -0.809017 0
    outer loop
      vertex -32.5 -12.9904 1.5
      vertex -35.037 -11.1472 1.5
      vertex -32.5 -12.9904 -0.5
    endloop
  endfacet
  facet normal -0.406737 -0.913545 0
    outer loop
      vertex -32.5 -12.9904 1.5
      vertex -32.5 -12.9904 -0.5
      vertex -29.6353 -14.2658 -0.5
    endloop
  endfacet
  facet normal -0.406737 -0.913545 0
    outer loop
      vertex -29.6353 -14.2658 1.5
      vertex -32.5 -12.9904 1.5
      vertex -29.6353 -14.2658 -0.5
    endloop
  endfacet
  facet normal -0.207911 -0.978148 0
    outer loop
      vertex -29.6353 -14.2658 1.5
      vertex -29.6353 -14.2658 -0.5
      vertex -27.5 -14.7197 -0.5
    endloop
  endfacet
  facet normal -0.207911 -0.978148 0
    outer loop
      vertex -27.5 -14.7197 1.5
      vertex -29.6353 -14.2658 1.5
      vertex -27.5 -14.7197 -0.5
    endloop
  endfacet
  facet normal -1 0 0
    outer loop
      vertex -27.5 -15 -0.5
      vertex -27.5 -15 12.5
      vertex -27.5 -14.7197 -0.5
    endloop
  endfacet
  facet normal -1 0 0
    outer loop
      vertex -27.5 -14.7197 1.5
      vertex -27.5 -15 12.5
      vertex -27.5 -10 12.5
    endloop
  endfacet
  facet normal -1 0 0
    outer loop
      vertex -27.5 -11.6695 1.5
      vertex -27.5 -10 10.5
      vertex -27.5 10 10.5
    endloop
  endfacet
  facet normal -1 0 0
    outer loop
      vertex -27.5 10 10.5
      vertex -27.5 10 12.5
      vertex -27.5 15 12.5
    endloop
  endfacet
  facet normal -1 0 0
    outer loop
      vertex -27.5 -14.7197 1.5
      vertex -27.5 -10 10.5
      vertex -27.5 -11.6695 1.5
    endloop
  endfacet
  facet normal -1 0 0
    outer loop
      vertex -27.5 14.7197 -0.5
      vertex -27.5 15 12.5
      vertex -27.5 15 -0.5
    endloop
  endfacet
  facet normal -1 0 0
    outer loop
      vertex -27.5 14.7197 1.5
      vertex -27.5 15 12.5
      vertex -27.5 14.7197 -0.5
    endloop
  endfacet
  facet normal -1 0 0
    outer loop
      vertex -27.5 11.6695 1.5
      vertex -27.5 15 12.5
      vertex -27.5 14.7197 1.5
    endloop
  endfacet
  facet normal -1 0 0
    outer loop
      vertex -27.5 -11.6695 1.5
      vertex -27.5 11.6695 1.5
      vertex -27.5 -11.6695 -0.5
    endloop
  endfacet
  facet normal -1 0 0
    outer loop
      vertex -27.5 -11.6695 1.5
      vertex -27.5 10 10.5
      vertex -27.5 15 12.5
    endloop
  endfacet
  facet normal -1 0 0
    outer loop
      vertex -27.5 -11.6695 1.5
      vertex -27.5 15 12.5
      vertex -27.5 11.6695 1.5
    endloop
  endfacet
  facet normal -1 0 0
    outer loop
      vertex -27.5 -14.7197 1.5
      vertex -27.5 -10 12.5
      vertex -27.5 -10 10.5
    endloop
  endfacet
  facet normal -1 0 0
    outer loop
      vertex -27.5 -14.7197 -0.5
      vertex -27.5 -15 12.5
      vertex -27.5 -14.7197 1.5
    endloop
  endfacet
  facet normal -1 0 0
    outer loop
      vertex -27.5 11.6695 -0.5
      vertex -27.5 -11.6695 -0.5
      vertex -27.5 11.6695 1.5
    endloop
  endfacet
  facet normal 0 -1 0
    outer loop
      vertex -27.5 -15 12.5
      vertex -27.5 -15 -0.5
      vertex 27.5 -15 -0.5
    endloop
  endfacet
  facet normal 0 -1 0
    outer loop
      vertex 27.5 -15 12.5
      vertex -27.5 -15 12.5
      vertex 27.5 -15 -0.5
    endloop
  endfacet
  facet normal 1 0 0
    outer loop
      vertex 27.5 -15 12.5
      vertex 27.5 -15 -0.5
      vertex 27.5 15 -0.5
    endloop
  endfacet
  facet normal 1 0 0
    outer loop
      vertex 27.5 -10 10.5
      vertex 27.5 -15 12.5
      vertex 27.5 15 -0.5
    endloop
  endfacet
  facet normal 1 0 0
    outer loop
      vertex 27.5 15 12.5
      vertex 27.5 10 12.5
      vertex 27.5 15 -0.5
    endloop
  endfacet
  facet normal 1 0 0
    outer loop
      vertex 27.5 10 12.5
      vertex 27.5 10 10.5
      vertex 27.5 15 -0.5
    endloop
  endfacet
  facet normal 1 0 0
    outer loop
      vertex 27.5 10 10.5
      vertex 27.5 -10 10.5
      vertex 27.5 15 -0.5
    endloop
  endfacet
  facet normal 1 0 0
    outer loop
      vertex 27.5 -10 10.5
      vertex 27.5 -10 12.5
      vertex 27.5 -15 12.5
    endloop
  endfacet
  facet normal 0 1 0
    outer loop
      vertex -27.5 15 -0.5
      vertex -27.5 15 12.5
      vertex 27.5 15 -0.5
    endloop
  endfacet
  facet normal 0 1 0
    outer loop
      vertex 27.5 15 -0.5
      vertex -27.5 15 12.5
      vertex 27.5 15 12.5
    endloop
  endfacet
  facet normal -0.207911 0.978148 0
    outer loop
      vertex -29.6353 14.2658 -0.5
      vertex -29.6353 14.2658 1.5
      vertex -27.5 14.7197 -0.5
    endloop
  endfacet
  facet normal -0.207911 0.978148 0
    outer loop
      vertex -27.5 14.7197 -0.5
      vertex -29.6353 14.2658 1.5
      vertex -27.5 14.7197 1.5
    endloop
  endfacet
  facet normal -0.406737 0.913545 0
    outer loop
      vertex -32.5 12.9904 -0.5
      vertex -32.5 12.9904 1.5
      vertex -29.6353 14.2658 -0.5
    endloop
  endfacet
  facet normal -0.406737 0.913545 0
    outer loop
      vertex -29.6353 14.2658 -0.5
      vertex -32.5 12.9904 1.5
      vertex -29.6353 14.2658 1.5
    endloop
  endfacet
  facet normal -0.587785 0.809017 0
    outer loop
      vertex -35.037 11.1472 -0.5
      vertex -35.037 11.1472 1.5
      vertex -32.5 12.9904 -0.5
    endloop
  endfacet
  facet normal -0.587785 0.809017 0
    outer loop
      vertex -32.5 12.9904 -0.5
      vertex -35.037 11.1472 1.5
      vertex -32.5 12.9904 1.5
    endloop
  endfacet
  facet normal -0.743145 0.669131 0
    outer loop
      vertex -37.1353 8.81678 -0.5
      vertex -37.1353 8.81678 1.5
      vertex -35.037 11.1472 -0.5
    endloop
  endfacet
  facet normal -0.743145 0.669131 0
    outer loop
      vertex -35.037 11.1472 -0.5
      vertex -37.1353 8.81678 1.5
      vertex -35.037 11.1472 1.5
    endloop
  endfacet
  facet normal -0.866025 0.5 0
    outer loop
      vertex -38.7032 6.10105 -0.5
      vertex -38.7032 6.10105 1.5
      vertex -37.1353 8.81678 -0.5
    endloop
  endfacet
  facet normal -0.866025 0.5 0
    outer loop
      vertex -37.1353 8.81678 -0.5
      vertex -38.7032 6.10105 1.5
      vertex -37.1353 8.81678 1.5
    endloop
  endfacet
  facet normal -0.951057 0.309017 0
    outer loop
      vertex -39.6722 3.11867 -0.5
      vertex -39.6722 3.11867 1.5
      vertex -38.7032 6.10105 -0.5
    endloop
  endfacet
  facet normal -0.951057 0.309017 0
    outer loop
      vertex -38.7032 6.10105 -0.5
      vertex -39.6722 3.11867 1.5
      vertex -38.7032 6.10105 1.5
    endloop
  endfacet
  facet normal 0.994522 -0.104529 0
    outer loop
      vertex -36.7378 2.49494 -0.5
      vertex -36.7378 2.49494 1.5
      vertex -37 0 1.5
    endloop
  endfacet
  facet normal 0.994522 -0.104529 0
    outer loop
      vertex -37 0 -0.5
      vertex -36.7378 2.49494 -0.5
      vertex -37 0 1.5
    endloop
  endfacet
  facet normal 0.994522 0.104529 0
    outer loop
      vertex -37 0 1.5
      vertex -36.7378 -2.49494 1.5
      vertex -36.7378 -2.49494 -0.5
    endloop
  endfacet
  facet normal 0.994522 0.104529 0
    outer loop
      vertex -37 0 -0.5
      vertex -37 0 1.5
      vertex -36.7378 -2.49494 -0.5
    endloop
  endfacet
  facet normal 0.951057 -0.309017 0
    outer loop
      vertex -35.9625 4.88084 -0.5
      vertex -35.9625 4.88084 1.5
      vertex -36.7378 2.49494 1.5
    endloop
  endfacet
  facet normal 0.951057 -0.309017 0
    outer loop
      vertex -36.7378 2.49494 -0.5
      vertex -35.9625 4.88084 -0.5
      vertex -36.7378 2.49494 1.5
    endloop
  endfacet
  facet normal 0.866025 -0.5 0
    outer loop
      vertex -34.7082 7.05342 -0.5
      vertex -34.7082 7.05342 1.5
      vertex -35.9625 4.88084 1.5
    endloop
  endfacet
  facet normal 0.866025 -0.5 0
    outer loop
      vertex -35.9625 4.88084 -0.5
      vertex -34.7082 7.05342 -0.5
      vertex -35.9625 4.88084 1.5
    endloop
  endfacet
  facet normal 0.743145 -0.669131 0
    outer loop
      vertex -33.0296 8.91774 -0.5
      vertex -33.0296 8.91774 1.5
      vertex -34.7082 7.05342 1.5
    endloop
  endfacet
  facet normal 0.743145 -0.669131 0
    outer loop
      vertex -34.7082 7.05342 -0.5
      vertex -33.0296 8.91774 -0.5
      vertex -34.7082 7.05342 1.5
    endloop
  endfacet
  facet normal 0.587785 -0.809017 0
    outer loop
      vertex -31 10.3923 -0.5
      vertex -31 10.3923 1.5
      vertex -33.0296 8.91774 1.5
    endloop
  endfacet
  facet normal 0.587785 -0.809017 0
    outer loop
      vertex -33.0296 8.91774 -0.5
      vertex -31 10.3923 -0.5
      vertex -33.0296 8.91774 1.5
    endloop
  endfacet
  facet normal 0.406737 -0.913546 0
    outer loop
      vertex -28.7082 11.4127 -0.5
      vertex -28.7082 11.4127 1.5
      vertex -31 10.3923 1.5
    endloop
  endfacet
  facet normal 0.406737 -0.913546 0
    outer loop
      vertex -31 10.3923 -0.5
      vertex -28.7082 11.4127 -0.5
      vertex -31 10.3923 1.5
    endloop
  endfacet
  facet normal 0.207912 -0.978148 0
    outer loop
      vertex -27.5 11.6695 -0.5
      vertex -27.5 11.6695 1.5
      vertex -28.7082 11.4127 1.5
    endloop
  endfacet
  facet normal 0.207912 -0.978148 0
    outer loop
      vertex -28.7082 11.4127 -0.5
      vertex -27.5 11.6695 -0.5
      vertex -28.7082 11.4127 1.5
    endloop
  endfacet
  facet normal 0.207912 0.978148 0
    outer loop
      vertex -27.5 -11.6695 1.5
      vertex -27.5 -11.6695 -0.5
      vertex -28.7082 -11.4127 1.5
    endloop
  endfacet
  facet normal 0.207912 0.978148 0
    outer loop
      vertex -28.7082 -11.4127 1.5
      vertex -27.5 -11.6695 -0.5
      vertex -28.7082 -11.4127 -0.5
    endloop
  endfacet
  facet normal 0.406737 0.913546 0
    outer loop
      vertex -28.7082 -11.4127 1.5
      vertex -28.7082 -11.4127 -0.5
      vertex -31 -10.3923 1.5
    endloop
  endfacet
  facet normal 0.406737 0.913546 0
    outer loop
      vertex -31 -10.3923 1.5
      vertex -28.7082 -11.4127 -0.5
      vertex -31 -10.3923 -0.5
    endloop
  endfacet
  facet normal 0.587785 0.809017 0
    outer loop
      vertex -31 -10.3923 1.5
      vertex -31 -10.3923 -0.5
      vertex -33.0296 -8.91774 1.5
    endloop
  endfacet
  facet normal 0.587785 0.809017 0
    outer loop
      vertex -33.0296 -8.91774 1.5
      vertex -31 -10.3923 -0.5
      vertex -33.0296 -8.91774 -0.5
    endloop
  endfacet
  facet normal 0.743145 0.669131 0
    outer loop
      vertex -34.7082 -7.05342 1.5
      vertex -33.0296 -8.91774 1.5
      vertex -33.0296 -8.91774 -0.5
    endloop
  endfacet
  facet normal 0.743145 0.669131 0
    outer loop
      vertex -34.7082 -7.05342 -0.5
      vertex -34.7082 -7.05342 1.5
      vertex -33.0296 -8.91774 -0.5
    endloop
  endfacet
  facet normal 0.866025 0.5 0
    outer loop
      vertex -35.9625 -4.88084 1.5
      vertex -34.7082 -7.05342 1.5
      vertex -34.7082 -7.05342 -0.5
    endloop
  endfacet
  facet normal 0.866025 0.5 0
    outer loop
      vertex -35.9625 -4.88084 -0.5
      vertex -35.9625 -4.88084 1.5
      vertex -34.7082 -7.05342 -0.5
    endloop
  endfacet
  facet normal 0.951057 0.309017 0
    outer loop
      vertex -36.7378 -2.49494 1.5
      vertex -35.9625 -4.88084 1.5
      vertex -35.9625 -4.88084 -0.5
    endloop
  endfacet
  facet normal 0.951057 0.309017 0
    outer loop
      vertex -36.7378 -2.49494 -0.5
      vertex -36.7378 -2.49494 1.5
      vertex -35.9625 -4.88084 -0.5
    endloop
  endfacet
  facet normal 1 0 0
    outer loop
      vertex -0.75 3.75 -0.5
      vertex -0.75 3.75 1.5
      vertex -0.75 -3.75 1.5
    endloop
  endfacet
  facet normal 1 0 0
    outer loop
      vertex -0.75 -3.75 -0.5
      vertex -0.75 3.75 -0.5
      vertex -0.75 -3.75 1.5
    endloop
  endfacet
  facet normal 0 -1 0
    outer loop
      vertex 3.75 3.75 -0.5
      vertex 3.75 3.75 1.5
      vertex -0.75 3.75 1.5
    endloop
  endfacet
  facet normal 0 -1 0
    outer loop
      vertex -0.75 3.75 -0.5
      vertex 3.75 3.75 -0.5
      vertex -0.75 3.75 1.5
    endloop
  endfacet
  facet normal -1 0 0
    outer loop
      vertex 3.75 3.75 1.5
      vertex 3.75 3.75 -0.5
      vertex 3.75 3.61805 1.5
    endloop
  endfacet
  facet normal -1 0 0
    outer loop
      vertex 3.75 3.61805 1.5
      vertex 3.75 3.75 -0.5
      vertex 3.75 3.61805 -0.5
    endloop
  endfacet
  facet normal 0.951057 -0.309017 0
    outer loop
      vertex 4.09423 4.67747 -0.5
      vertex 4.09423 4.67747 1.5
      vertex 3.75 3.61805 1.5
    endloop
  endfacet
  facet normal 0.951057 -0.309017 0
    outer loop
      vertex 3.75 3.61805 -0.5
      vertex 4.09423 4.67747 -0.5
      vertex 3.75 3.61805 1.5
    endloop
  endfacet
  facet normal 0.866025 -0.5 0
    outer loop
      vertex 5.29631 6.75953 -0.5
      vertex 5.29631 6.75953 1.5
      vertex 4.09423 4.67747 1.5
    endloop
  endfacet
  facet normal 0.866025 -0.5 0
    outer loop
      vertex 4.09423 4.67747 -0.5
      vertex 5.29631 6.75953 -0.5
      vertex 4.09423 4.67747 1.5
    endloop
  endfacet
  facet normal 0.743145 -0.669131 0
    outer loop
      vertex 6.905 8.54617 -0.5
      vertex 6.905 8.54617 1.5
      vertex 5.29631 6.75953 1.5
    endloop
  endfacet
  facet normal 0.743145 -0.669131 0
    outer loop
      vertex 5.29631 6.75953 -0.5
      vertex 6.905 8.54617 -0.5
      vertex 5.29631 6.75953 1.5
    endloop
  endfacet
  facet normal 0.587785 -0.809017 0
    outer loop
      vertex 8.85 9.95929 -0.5
      vertex 8.85 9.95929 1.5
      vertex 6.905 8.54617 1.5
    endloop
  endfacet
  facet normal 0.587785 -0.809017 0
    outer loop
      vertex 6.905 8.54617 -0.5
      vertex 8.85 9.95929 -0.5
      vertex 6.905 8.54617 1.5
    endloop
  endfacet
  facet normal 0.406737 -0.913545 0
    outer loop
      vertex 11.0463 10.9371 -0.5
      vertex 11.0463 10.9371 1.5
      vertex 8.85 9.95929 1.5
    endloop
  endfacet
  facet normal 0.406737 -0.913545 0
    outer loop
      vertex 8.85 9.95929 -0.5
      vertex 11.0463 10.9371 -0.5
      vertex 8.85 9.95929 1.5
    endloop
  endfacet
  facet normal 0.207912 -0.978148 0
    outer loop
      vertex 13.3979 11.437 -0.5
      vertex 13.3979 11.437 1.5
      vertex 11.0463 10.9371 1.5
    endloop
  endfacet
  facet normal 0.207912 -0.978148 0
    outer loop
      vertex 11.0463 10.9371 -0.5
      vertex 13.3979 11.437 -0.5
      vertex 11.0463 10.9371 1.5
    endloop
  endfacet
  facet normal 0 -1 0
    outer loop
      vertex 15.8021 11.437 -0.5
      vertex 15.8021 11.437 1.5
      vertex 13.3979 11.437 1.5
    endloop
  endfacet
  facet normal 0 -1 0
    outer loop
      vertex 13.3979 11.437 -0.5
      vertex 15.8021 11.437 -0.5
      vertex 13.3979 11.437 1.5
    endloop
  endfacet
  facet normal -0.207912 -0.978148 0
    outer loop
      vertex 18.1537 10.9371 -0.5
      vertex 18.1537 10.9371 1.5
      vertex 15.8021 11.437 1.5
    endloop
  endfacet
  facet normal -0.207912 -0.978148 0
    outer loop
      vertex 15.8021 11.437 -0.5
      vertex 18.1537 10.9371 -0.5
      vertex 15.8021 11.437 1.5
    endloop
  endfacet
  facet normal -0.406737 -0.913545 0
    outer loop
      vertex 20.35 9.95929 -0.5
      vertex 20.35 9.95929 1.5
      vertex 18.1537 10.9371 1.5
    endloop
  endfacet
  facet normal -0.406737 -0.913545 0
    outer loop
      vertex 18.1537 10.9371 -0.5
      vertex 20.35 9.95929 -0.5
      vertex 18.1537 10.9371 1.5
    endloop
  endfacet
  facet normal -0.587785 -0.809017 0
    outer loop
      vertex 22.295 8.54617 -0.5
      vertex 22.295 8.54617 1.5
      vertex 20.35 9.95929 1.5
    endloop
  endfacet
  facet normal -0.587785 -0.809017 0
    outer loop
      vertex 20.35 9.95929 -0.5
      vertex 22.295 8.54617 -0.5
      vertex 20.35 9.95929 1.5
    endloop
  endfacet
  facet normal -0.743145 -0.669131 0
    outer loop
      vertex 23.9037 6.75953 8.5
      vertex 23.5 7.20788 8.5
      vertex 23.9037 6.75953 -0.5
    endloop
  endfacet
  facet normal -0.743145 -0.669131 0
    outer loop
      vertex 23.9037 6.75953 -0.5
      vertex 23.5 7.20788 8.5
      vertex 23.5 7.20788 1.5
    endloop
  endfacet
  facet normal -0.743145 -0.669131 0
    outer loop
      vertex 23.9037 6.75953 -0.5
      vertex 23.5 7.20788 1.5
      vertex 22.295 8.54617 1.5
    endloop
  endfacet
  facet normal -0.743145 -0.669131 0
    outer loop
      vertex 23.9037 6.75953 -0.5
      vertex 22.295 8.54617 1.5
      vertex 22.295 8.54617 -0.5
    endloop
  endfacet
  facet normal -0.866025 -0.5 0
    outer loop
      vertex 25.1058 4.67747 8.5
      vertex 24.5 5.7267 8.5
      vertex 25.1058 4.67747 -0.5
    endloop
  endfacet
  facet normal -0.866025 -0.5 0
    outer loop
      vertex 25.1058 4.67747 -0.5
      vertex 24.5 5.7267 8.5
      vertex 23.9037 6.75953 8.5
    endloop
  endfacet
  facet normal -0.866025 -0.5 0
    outer loop
      vertex 25.1058 4.67747 -0.5
      vertex 23.9037 6.75953 8.5
      vertex 23.9037 6.75953 -0.5
    endloop
  endfacet
  facet normal -0.951057 -0.309017 0
    outer loop
      vertex 25.8487 2.39098 8.5
      vertex 25.1058 4.67747 8.5
      vertex 25.8487 2.39098 -0.5
    endloop
  endfacet
  facet normal -0.951057 -0.309017 0
    outer loop
      vertex 25.8487 2.39098 -0.5
      vertex 25.1058 4.67747 8.5
      vertex 25.1058 4.67747 -0.5
    endloop
  endfacet
  facet normal -0.994522 -0.104529 0
    outer loop
      vertex 26.1 0 8.5
      vertex 25.8487 2.39098 8.5
      vertex 26.1 0 -0.5
    endloop
  endfacet
  facet normal -0.994522 -0.104529 0
    outer loop
      vertex 26.1 0 -0.5
      vertex 25.8487 2.39098 8.5
      vertex 25.8487 2.39098 -0.5
    endloop
  endfacet
  facet normal -0.994522 0.104529 0
    outer loop
      vertex 26.1 0 8.5
      vertex 26.1 0 -0.5
      vertex 25.8487 -2.39098 8.5
    endloop
  endfacet
  facet normal -0.994522 0.104529 0
    outer loop
      vertex 25.8487 -2.39098 8.5
      vertex 26.1 0 -0.5
      vertex 25.8487 -2.39098 -0.5
    endloop
  endfacet
  facet normal -0.951057 0.309017 0
    outer loop
      vertex 25.8487 -2.39098 8.5
      vertex 25.8487 -2.39098 -0.5
      vertex 25.1058 -4.67747 8.5
    endloop
  endfacet
  facet normal -0.951057 0.309017 0
    outer loop
      vertex 25.1058 -4.67747 8.5
      vertex 25.8487 -2.39098 -0.5
      vertex 25.1058 -4.67747 -0.5
    endloop
  endfacet
  facet normal -0.866025 0.5 0
    outer loop
      vertex 25.1058 -4.67747 8.5
      vertex 25.1058 -4.67747 -0.5
      vertex 24.5 -5.7267 8.5
    endloop
  endfacet
  facet normal -0.866025 0.5 0
    outer loop
      vertex 24.5 -5.7267 8.5
      vertex 25.1058 -4.67747 -0.5
      vertex 23.9037 -6.75953 8.5
    endloop
  endfacet
  facet normal -0.866025 0.5 0
    outer loop
      vertex 23.9037 -6.75953 8.5
      vertex 25.1058 -4.67747 -0.5
      vertex 23.9037 -6.75953 -0.5
    endloop
  endfacet
  facet normal -0.743145 0.669131 0
    outer loop
      vertex 23.5 -7.20788 1.5
      vertex 23.5 -7.20788 8.5
      vertex 23.9037 -6.75953 8.5
    endloop
  endfacet
  facet normal -0.743145 0.669131 0
    outer loop
      vertex 23.5 -7.20788 1.5
      vertex 23.9037 -6.75953 8.5
      vertex 23.9037 -6.75953 -0.5
    endloop
  endfacet
  facet normal -0.743145 0.669131 0
    outer loop
      vertex 23.5 -7.20788 1.5
      vertex 23.9037 -6.75953 -0.5
      vertex 22.295 -8.54617 1.5
    endloop
  endfacet
  facet normal -0.743145 0.669131 0
    outer loop
      vertex 23.9037 -6.75953 -0.5
      vertex 22.295 -8.54617 -0.5
      vertex 22.295 -8.54617 1.5
    endloop
  endfacet
  facet normal -0.587785 0.809017 0
    outer loop
      vertex 22.295 -8.54617 1.5
      vertex 22.295 -8.54617 -0.5
      vertex 20.35 -9.95929 1.5
    endloop
  endfacet
  facet normal -0.587785 0.809017 0
    outer loop
      vertex 20.35 -9.95929 1.5
      vertex 22.295 -8.54617 -0.5
      vertex 20.35 -9.95929 -0.5
    endloop
  endfacet
  facet normal -0.406737 0.913545 0
    outer loop
      vertex 20.35 -9.95929 1.5
      vertex 20.35 -9.95929 -0.5
      vertex 18.1537 -10.9371 1.5
    endloop
  endfacet
  facet normal -0.406737 0.913545 0
    outer loop
      vertex 18.1537 -10.9371 1.5
      vertex 20.35 -9.95929 -0.5
      vertex 18.1537 -10.9371 -0.5
    endloop
  endfacet
  facet normal -0.207912 0.978148 0
    outer loop
      vertex 18.1537 -10.9371 1.5
      vertex 18.1537 -10.9371 -0.5
      vertex 15.8021 -11.437 1.5
    endloop
  endfacet
  facet normal -0.207912 0.978148 0
    outer loop
      vertex 15.8021 -11.437 1.5
      vertex 18.1537 -10.9371 -0.5
      vertex 15.8021 -11.437 -0.5
    endloop
  endfacet
  facet normal 0 1 0
    outer loop
      vertex 15.8021 -11.437 1.5
      vertex 15.8021 -11.437 -0.5
      vertex 13.3979 -11.437 1.5
    endloop
  endfacet
  facet normal 0 1 0
    outer loop
      vertex 13.3979 -11.437 1.5
      vertex 15.8021 -11.437 -0.5
      vertex 13.3979 -11.437 -0.5
    endloop
  endfacet
  facet normal 0.207912 0.978148 0
    outer loop
      vertex 13.3979 -11.437 1.5
      vertex 13.3979 -11.437 -0.5
      vertex 11.0463 -10.9371 1.5
    endloop
  endfacet
  facet normal 0.207912 0.978148 0
    outer loop
      vertex 11.0463 -10.9371 1.5
      vertex 13.3979 -11.437 -0.5
      vertex 11.0463 -10.9371 -0.5
    endloop
  endfacet
  facet normal 0.406737 0.913545 0
    outer loop
      vertex 11.0463 -10.9371 1.5
      vertex 11.0463 -10.9371 -0.5
      vertex 8.85 -9.95929 1.5
    endloop
  endfacet
  facet normal 0.406737 0.913545 0
    outer loop
      vertex 8.85 -9.95929 1.5
      vertex 11.0463 -10.9371 -0.5
      vertex 8.85 -9.95929 -0.5
    endloop
  endfacet
  facet normal 0.587785 0.809017 0
    outer loop
      vertex 8.85 -9.95929 1.5
      vertex 8.85 -9.95929 -0.5
      vertex 6.905 -8.54617 1.5
    endloop
  endfacet
  facet normal 0.587785 0.809017 0
    outer loop
      vertex 6.905 -8.54617 1.5
      vertex 8.85 -9.95929 -0.5
      vertex 6.905 -8.54617 -0.5
    endloop
  endfacet
  facet normal 0.743145 0.669131 0
    outer loop
      vertex 5.29631 -6.75953 1.5
      vertex 6.905 -8.54617 1.5
      vertex 6.905 -8.54617 -0.5
    endloop
  endfacet
  facet normal 0.743145 0.669131 0
    outer loop
      vertex 5.29631 -6.75953 -0.5
      vertex 5.29631 -6.75953 1.5
      vertex 6.905 -8.54617 -0.5
    endloop
  endfacet
  facet normal 0.866025 0.5 0
    outer loop
      vertex 4.09423 -4.67747 1.5
      vertex 5.29631 -6.75953 1.5
      vertex 5.29631 -6.75953 -0.5
    endloop
  endfacet
  facet normal 0.866025 0.5 0
    outer loop
      vertex 4.09423 -4.67747 -0.5
      vertex 4.09423 -4.67747 1.5
      vertex 5.29631 -6.75953 -0.5
    endloop
  endfacet
  facet normal 0.951057 0.309017 0
    outer loop
      vertex 3.75 -3.61805 1.5
      vertex 4.09423 -4.67747 1.5
      vertex 4.09423 -4.67747 -0.5
    endloop
  endfacet
  facet normal 0.951057 0.309017 0
    outer loop
      vertex 3.75 -3.61805 -0.5
      vertex 3.75 -3.61805 1.5
      vertex 4.09423 -4.67747 -0.5
    endloop
  endfacet
  facet normal -1 0 0
    outer loop
      vertex 3.75 -3.61805 1.5
      vertex 3.75 -3.61805 -0.5
      vertex 3.75 -3.75 1.5
    endloop
  endfacet
  facet normal -1 0 0
    outer loop
      vertex 3.75 -3.75 1.5
      vertex 3.75 -3.61805 -0.5
      vertex 3.75 -3.75 -0.5
    endloop
  endfacet
  facet normal 0 1 0
    outer loop
      vertex 3.75 -3.75 1.5
      vertex 3.75 -3.75 -0.5
      vertex -0.75 -3.75 1.5
    endloop
  endfacet
  facet normal 0 1 0
    outer loop
      vertex -0.75 -3.75 1.5
      vertex 3.75 -3.75 -0.5
      vertex -0.75 -3.75 -0.5
    endloop
  endfacet
  facet normal 0 0 1
    outer loop
      vertex -39.6722 -3.11867 1.5
      vertex -38.7032 -6.10105 1.5
      vertex -37.1353 -8.81678 1.5
    endloop
  endfacet
  facet normal 0 0 1
    outer loop
      vertex -32.5 -12.9904 1.5
      vertex -39.6722 -3.11867 1.5
      vertex -35.037 -11.1472 1.5
    endloop
  endfacet
  facet normal 0 0 1
    outer loop
      vertex -35.037 -11.1472 1.5
      vertex -39.6722 -3.11867 1.5
      vertex -37.1353 -8.81678 1.5
    endloop
  endfacet
  facet normal 0 0 1
    outer loop
      vertex -29.6353 -14.2658 1.5
      vertex -39.6722 -3.11867 1.5
      vertex -32.5 -12.9904 1.5
    endloop
  endfacet
  facet normal 0 0 1
    outer loop
      vertex -27.5 -14.7197 1.5
      vertex -39.6722 -3.11867 1.5
      vertex -29.6353 -14.2658 1.5
    endloop
  endfacet
  facet normal 0 0 1
    outer loop
      vertex -33.0296 -8.91774 1.5
      vertex -39.6722 -3.11867 1.5
      vertex -27.5 -14.7197 1.5
    endloop
  endfacet
  facet normal 0 0 1
    outer loop
      vertex -27.5 -11.6695 1.5
      vertex -28.7082 -11.4127 1.5
      vertex -27.5 -14.7197 1.5
    endloop
  endfacet
  facet normal 0 0 1
    outer loop
      vertex -28.7082 -11.4127 1.5
      vertex -31 -10.3923 1.5
      vertex -27.5 -14.7197 1.5
    endloop
  endfacet
  facet normal 0 0 1
    outer loop
      vertex -31 -10.3923 1.5
      vertex -33.0296 -8.91774 1.5
      vertex -27.5 -14.7197 1.5
    endloop
  endfacet
  facet normal 0 0 1
    outer loop
      vertex -36.7378 -2.49494 1.5
      vertex -39.6722 -3.11867 1.5
      vertex -35.9625 -4.88084 1.5
    endloop
  endfacet
  facet normal 0 0 1
    outer loop
      vertex -37 0 1.5
      vertex -39.6722 -3.11867 1.5
      vertex -36.7378 -2.49494 1.5
    endloop
  endfacet
  facet normal 0 0 1
    outer loop
      vertex -36.7378 2.49494 1.5
      vertex -39.6722 -3.11867 1.5
      vertex -37 0 1.5
    endloop
  endfacet
  facet normal 0 0 1
    outer loop
      vertex -35.9625 4.88084 1.5
      vertex -39.6722 -3.11867 1.5
      vertex -36.7378 2.49494 1.5
    endloop
  endfacet
  facet normal 0 0 1
    outer loop
      vertex -32.5 12.9904 1.5
      vertex -39.6722 -3.11867 1.5
      vertex -35.9625 4.88084 1.5
    endloop
  endfacet
  facet normal 0 0 1
    outer loop
      vertex -32.5 12.9904 1.5
      vertex -35.9625 4.88084 1.5
      vertex -34.7082 7.05342 1.5
    endloop
  endfacet
  facet normal 0 0 1
    outer loop
      vertex -29.6353 14.2658 1.5
      vertex -34.7082 7.05342 1.5
      vertex -33.0296 8.91774 1.5
    endloop
  endfacet
  facet normal 0 0 1
    outer loop
      vertex -27.5 14.7197 1.5
      vertex -33.0296 8.91774 1.5
      vertex -31 10.3923 1.5
    endloop
  endfacet
  facet normal 0 0 1
    outer loop
      vertex -27.5 14.7197 1.5
      vertex -31 10.3923 1.5
      vertex -28.7082 11.4127 1.5
    endloop
  endfacet
  facet normal 0 0 1
    outer loop
      vertex -27.5 14.7197 1.5
      vertex -28.7082 11.4127 1.5
      vertex -27.5 11.6695 1.5
    endloop
  endfacet
  facet normal 0 0 1
    outer loop
      vertex -29.6353 14.2658 1.5
      vertex -33.0296 8.91774 1.5
      vertex -27.5 14.7197 1.5
    endloop
  endfacet
  facet normal 0 0 1
    outer loop
      vertex -32.5 12.9904 1.5
      vertex -34.7082 7.05342 1.5
      vertex -29.6353 14.2658 1.5
    endloop
  endfacet
  facet normal 0 0 1
    outer loop
      vertex -35.037 11.1472 1.5
      vertex -39.6722 -3.11867 1.5
      vertex -32.5 12.9904 1.5
    endloop
  endfacet
  facet normal 0 0 1
    outer loop
      vertex -37.1353 8.81678 1.5
      vertex -39.6722 -3.11867 1.5
      vertex -35.037 11.1472 1.5
    endloop
  endfacet
  facet normal 0 0 1
    outer loop
      vertex -38.7032 6.10105 1.5
      vertex -39.6722 -3.11867 1.5
      vertex -37.1353 8.81678 1.5
    endloop
  endfacet
  facet normal 0 0 1
    outer loop
      vertex -39.6722 3.11867 1.5
      vertex -39.6722 -3.11867 1.5
      vertex -38.7032 6.10105 1.5
    endloop
  endfacet
  facet normal 0 0 1
    outer loop
      vertex -40 0 1.5
      vertex -39.6722 -3.11867 1.5
      vertex -39.6722 3.11867 1.5
    endloop
  endfacet
  facet normal 0 0 1
    outer loop
      vertex -33.0296 -8.91774 1.5
      vertex -34.7082 -7.05342 1.5
      vertex -39.6722 -3.11867 1.5
    endloop
  endfacet
  facet normal 0 0 1
    outer loop
      vertex -34.7082 -7.05342 1.5
      vertex -35.9625 -4.88084 1.5
      vertex -39.6722 -3.11867 1.5
    endloop
  endfacet
  facet normal 0 0 1
    outer loop
      vertex -27.5 15 12.5
      vertex -27.5 10 12.5
      vertex -23.75 10 12.5
    endloop
  endfacet
  facet normal 0 0 1
    outer loop
      vertex 23.75 13 12.5
      vertex -27.5 15 12.5
      vertex -23.75 13 12.5
    endloop
  endfacet
  facet normal 0 0 1
    outer loop
      vertex -23.75 13 12.5
      vertex -27.5 15 12.5
      vertex -23.75 10 12.5
    endloop
  endfacet
  facet normal 0 0 1
    outer loop
      vertex 27.5 15 12.5
      vertex -27.5 15 12.5
      vertex 23.75 13 12.5
    endloop
  endfacet
  facet normal 0 0 1
    outer loop
      vertex 27.5 10 12.5
      vertex 23.75 13 12.5
      vertex 23.75 10 12.5
    endloop
  endfacet
  facet normal 0 0 1
    outer loop
      vertex 27.5 15 12.5
      vertex 23.75 13 12.5
      vertex 27.5 10 12.5
    endloop
  endfacet
  facet normal 0 -1 0
    outer loop
      vertex -24.5 10 10.5
      vertex -23.75 10 10.5
      vertex -23.75 10 12.5
    endloop
  endfacet
  facet normal 0 -1 0
    outer loop
      vertex -27.5 10 10.5
      vertex -24.5 10 10.5
      vertex -27.5 10 12.5
    endloop
  endfacet
  facet normal 0 -1 0
    outer loop
      vertex -27.5 10 12.5
      vertex -24.5 10 10.5
      vertex -23.75 10 12.5
    endloop
  endfacet
  facet normal 0 0 1
    outer loop
      vertex -27.5 10 10.5
      vertex -27.5 -10 10.5
      vertex -24.5 -10 10.5
    endloop
  endfacet
  facet normal 0 0 1
    outer loop
      vertex -24.5 10 10.5
      vertex -27.5 10 10.5
      vertex -24.5 -10 10.5
    endloop
  endfacet
  facet normal 0 1 0
    outer loop
      vertex -23.75 -10 12.5
      vertex -23.75 -10 10.5
      vertex -27.5 -10 12.5
    endloop
  endfacet
  facet normal 0 1 0
    outer loop
      vertex -27.5 -10 12.5
      vertex -23.75 -10 10.5
      vertex -24.5 -10 10.5
    endloop
  endfacet
  facet normal 0 1 0
    outer loop
      vertex -27.5 -10 12.5
      vertex -24.5 -10 10.5
      vertex -27.5 -10 10.5
    endloop
  endfacet
  facet normal 0 0 1
    outer loop
      vertex -23.75 -13 12.5
      vertex -27.5 -15 12.5
      vertex 27.5 -15 12.5
    endloop
  endfacet
  facet normal 0 0 1
    outer loop
      vertex -23.75 -13 12.5
      vertex -23.75 -10 12.5
      vertex -27.5 -10 12.5
    endloop
  endfacet
  facet normal 0 0 1
    outer loop
      vertex 27.5 -10 12.5
      vertex 23.75 -10 12.5
      vertex 27.5 -15 12.5
    endloop
  endfacet
  facet normal 0 0 1
    outer loop
      vertex 23.75 -10 12.5
      vertex 23.75 -13 12.5
      vertex 27.5 -15 12.5
    endloop
  endfacet
  facet normal 0 0 1
    outer loop
      vertex -27.5 -10 12.5
      vertex -27.5 -15 12.5
      vertex -23.75 -13 12.5
    endloop
  endfacet
  facet normal 0 0 1
    outer loop
      vertex 23.75 -13 12.5
      vertex -23.75 -13 12.5
      vertex 27.5 -15 12.5
    endloop
  endfacet
  facet normal 0 1 0
    outer loop
      vertex 27.5 -10 12.5
      vertex 27.5 -10 10.5
      vertex 23.75 -10 12.5
    endloop
  endfacet
  facet normal 0 1 0
    outer loop
      vertex 23.75 -10 12.5
      vertex 27.5 -10 10.5
      vertex 24.5 -10 10.5
    endloop
  endfacet
  facet normal 0 1 0
    outer loop
      vertex 23.75 -10 12.5
      vertex 24.5 -10 10.5
      vertex 23.75 -10 10.5
    endloop
  endfacet
  facet normal 0 0 1
    outer loop
      vertex 24.5 10 10.5
      vertex 24.5 -10 10.5
      vertex 27.5 -10 10.5
    endloop
  endfacet
  facet normal 0 0 1
    outer loop
      vertex 27.5 10 10.5
      vertex 24.5 10 10.5
      vertex 27.5 -10 10.5
    endloop
  endfacet
  facet normal 0 -1 0
    outer loop
      vertex 24.5 10 10.5
      vertex 27.5 10 10.5
      vertex 27.5 10 12.5
    endloop
  endfacet
  facet normal 0 -1 0
    outer loop
      vertex 23.75 10 10.5
      vertex 24.5 10 10.5
      vertex 23.75 10 12.5
    endloop
  endfacet
  facet normal 0 -1 0
    outer loop
      vertex 23.75 10 12.5
      vertex 24.5 10 10.5
      vertex 27.5 10 12.5
    endloop
  endfacet
  facet normal 0 0 1
    outer loop
      vertex 18.1537 -10.9371 1.5
      vertex 15.8021 -11.437 1.5
      vertex 23.5 -13 1.5
    endloop
  endfacet
  facet normal 0 0 1
    outer loop
      vertex 23.5 -13 1.5
      vertex 23.5 -7.20788 1.5
      vertex 22.295 -8.54617 1.5
    endloop
  endfacet
  facet normal 0 0 1
    outer loop
      vertex 15.8021 -11.437 1.5
      vertex 13.3979 -11.437 1.5
      vertex 23.5 -13 1.5
    endloop
  endfacet
  facet normal 0 0 1
    outer loop
      vertex 20.35 -9.95929 1.5
      vertex 23.5 -13 1.5
      vertex 22.295 -8.54617 1.5
    endloop
  endfacet
  facet normal 0 0 1
    outer loop
      vertex 20.35 -9.95929 1.5
      vertex 18.1537 -10.9371 1.5
      vertex 23.5 -13 1.5
    endloop
  endfacet
  facet normal 0 0 1
    outer loop
      vertex 13.3979 -11.437 1.5
      vertex -12.8647 -8.81678 1.5
      vertex 23.5 -13 1.5
    endloop
  endfacet
  facet normal 0 0 1
    outer loop
      vertex 11.0463 -10.9371 1.5
      vertex -12.8647 -8.81678 1.5
      vertex 13.3979 -11.437 1.5
    endloop
  endfacet
  facet normal 0 0 1
    outer loop
      vertex 8.85 -9.95929 1.5
      vertex -10.3278 -3.11867 1.5
      vertex 11.0463 -10.9371 1.5
    endloop
  endfacet
  facet normal 0 0 1
    outer loop
      vertex 6.905 -8.54617 1.5
      vertex -0.75 -3.75 1.5
      vertex 8.85 -9.95929 1.5
    endloop
  endfacet
  facet normal 0 0 1
    outer loop
      vertex 5.29631 -6.75953 1.5
      vertex -0.75 -3.75 1.5
      vertex 6.905 -8.54617 1.5
    endloop
  endfacet
  facet normal 0 0 1
    outer loop
      vertex 4.09423 -4.67747 1.5
      vertex -0.75 -3.75 1.5
      vertex 5.29631 -6.75953 1.5
    endloop
  endfacet
  facet normal 0 0 1
    outer loop
      vertex 3.75 -3.75 1.5
      vertex -0.75 -3.75 1.5
      vertex 4.09423 -4.67747 1.5
    endloop
  endfacet
  facet normal 0 0 1
    outer loop
      vertex 3.75 3.75 1.5
      vertex 4.09423 4.67747 1.5
      vertex -0.75 3.75 1.5
    endloop
  endfacet
  facet normal 0 0 1
    outer loop
      vertex 3.75 -3.61805 1.5
      vertex 3.75 -3.75 1.5
      vertex 4.09423 -4.67747 1.5
    endloop
  endfacet
  facet normal 0 0 1
    outer loop
      vertex -0.75 -3.75 1.5
      vertex -10 0 1.5
      vertex 8.85 -9.95929 1.5
    endloop
  endfacet
  facet normal 0 0 1
    outer loop
      vertex 4.09423 4.67747 1.5
      vertex 5.29631 6.75953 1.5
      vertex -0.75 3.75 1.5
    endloop
  endfacet
  facet normal 0 0 1
    outer loop
      vertex -17.5 12.9904 1.5
      vertex -14.963 11.1472 1.5
      vertex -0.75 3.75 1.5
    endloop
  endfacet
  facet normal 0 0 1
    outer loop
      vertex 5.29631 6.75953 1.5
      vertex 6.905 8.54617 1.5
      vertex -0.75 3.75 1.5
    endloop
  endfacet
  facet normal 0 0 1
    outer loop
      vertex 6.905 8.54617 1.5
      vertex 8.85 9.95929 1.5
      vertex -0.75 3.75 1.5
    endloop
  endfacet
  facet normal 0 0 1
    outer loop
      vertex -12.8647 8.81678 1.5
      vertex -11.2968 6.10105 1.5
      vertex -0.75 -3.75 1.5
    endloop
  endfacet
  facet normal 0 0 1
    outer loop
      vertex 11.0463 10.9371 1.5
      vertex -17.5216 13 1.5
      vertex 8.85 9.95929 1.5
    endloop
  endfacet
  facet normal 0 0 1
    outer loop
      vertex 13.3979 11.437 1.5
      vertex -17.5216 13 1.5
      vertex 11.0463 10.9371 1.5
    endloop
  endfacet
  facet normal 0 0 1
    outer loop
      vertex 15.8021 11.437 1.5
      vertex 23.5 13 1.5
      vertex 13.3979 11.437 1.5
    endloop
  endfacet
  facet normal 0 0 1
    outer loop
      vertex 18.1537 10.9371 1.5
      vertex 23.5 13 1.5
      vertex 15.8021 11.437 1.5
    endloop
  endfacet
  facet normal 0 0 1
    outer loop
      vertex 20.35 9.95929 1.5
      vertex 23.5 13 1.5
      vertex 18.1537 10.9371 1.5
    endloop
  endfacet
  facet normal 0 0 1
    outer loop
      vertex 22.295 8.54617 1.5
      vertex 23.5 13 1.5
      vertex 20.35 9.95929 1.5
    endloop
  endfacet
  facet normal 0 0 1
    outer loop
      vertex -11.2968 6.10105 1.5
      vertex -10.3278 3.11867 1.5
      vertex -0.75 -3.75 1.5
    endloop
  endfacet
  facet normal 0 0 1
    outer loop
      vertex 23.5 7.20788 1.5
      vertex 23.5 13 1.5
      vertex 22.295 8.54617 1.5
    endloop
  endfacet
  facet normal 0 0 1
    outer loop
      vertex 23.5 13 1.5
      vertex -17.5216 13 1.5
      vertex 13.3979 11.437 1.5
    endloop
  endfacet
  facet normal 0 0 1
    outer loop
      vertex 8.85 9.95929 1.5
      vertex -17.5 12.9904 1.5
      vertex -0.75 3.75 1.5
    endloop
  endfacet
  facet normal 0 0 1
    outer loop
      vertex 8.85 9.95929 1.5
      vertex -17.5216 13 1.5
      vertex -17.5 12.9904 1.5
    endloop
  endfacet
  facet normal 0 0 1
    outer loop
      vertex -0.75 3.75 1.5
      vertex -14.963 11.1472 1.5
      vertex -0.75 -3.75 1.5
    endloop
  endfacet
  facet normal 0 0 1
    outer loop
      vertex -14.963 11.1472 1.5
      vertex -12.8647 8.81678 1.5
      vertex -0.75 -3.75 1.5
    endloop
  endfacet
  facet normal 0 0 1
    outer loop
      vertex -10.3278 3.11867 1.5
      vertex -10 0 1.5
      vertex -0.75 -3.75 1.5
    endloop
  endfacet
  facet normal 0 0 1
    outer loop
      vertex -11.2968 -6.10105 1.5
      vertex -12.8647 -8.81678 1.5
      vertex 11.0463 -10.9371 1.5
    endloop
  endfacet
  facet normal 0 0 1
    outer loop
      vertex -14.963 -11.1472 1.5
      vertex -17.5 -12.9904 1.5
      vertex 23.5 -13 1.5
    endloop
  endfacet
  facet normal 0 0 1
    outer loop
      vertex -10 0 1.5
      vertex -10.3278 -3.11867 1.5
      vertex 8.85 -9.95929 1.5
    endloop
  endfacet
  facet normal 0 0 1
    outer loop
      vertex -10.3278 -3.11867 1.5
      vertex -11.2968 -6.10105 1.5
      vertex 11.0463 -10.9371 1.5
    endloop
  endfacet
  facet normal 0 0 1
    outer loop
      vertex -17.5 -12.9904 1.5
      vertex -17.5216 -13 1.5
      vertex 23.5 -13 1.5
    endloop
  endfacet
  facet normal 0 0 1
    outer loop
      vertex -12.8647 -8.81678 1.5
      vertex -14.963 -11.1472 1.5
      vertex 23.5 -13 1.5
    endloop
  endfacet
  facet normal 0 0 1
    outer loop
      vertex 3.75 3.61805 1.5
      vertex 4.09423 4.67747 1.5
      vertex 3.75 3.75 1.5
    endloop
  endfacet
  facet normal -1 0 0
    outer loop
      vertex 23.5 13 8.5
      vertex 23.5 13 1.5
      vertex 23.5 7.20788 8.5
    endloop
  endfacet
  facet normal -1 0 0
    outer loop
      vertex 23.5 7.20788 8.5
      vertex 23.5 13 1.5
      vertex 23.5 7.20788 1.5
    endloop
  endfacet
  facet normal 0 0 1
    outer loop
      vertex 23.9037 6.75953 8.5
      vertex 24.5 5.7267 8.5
      vertex 24.5 13 8.5
    endloop
  endfacet
  facet normal 0 0 1
    outer loop
      vertex 23.5 7.20788 8.5
      vertex 23.9037 6.75953 8.5
      vertex 23.5 13 8.5
    endloop
  endfacet
  facet normal 0 0 1
    outer loop
      vertex 23.5 13 8.5
      vertex 23.9037 6.75953 8.5
      vertex 24.5 13 8.5
    endloop
  endfacet
  facet normal -1 0 0
    outer loop
      vertex 24.5 10 10.5
      vertex 24.5 13 8.5
      vertex 24.5 -10 10.5
    endloop
  endfacet
  facet normal -1 0 0
    outer loop
      vertex 24.5 -10 10.5
      vertex 24.5 13 8.5
      vertex 24.5 -13 10.5
    endloop
  endfacet
  facet normal -1 0 0
    outer loop
      vertex 24.5 13 10.5
      vertex 24.5 13 8.5
      vertex 24.5 10 10.5
    endloop
  endfacet
  facet normal -1 0 0
    outer loop
      vertex 24.5 -13 10.5
      vertex 24.5 13 8.5
      vertex 24.5 5.7267 8.5
    endloop
  endfacet
  facet normal -1 0 0
    outer loop
      vertex 24.5 -13 10.5
      vertex 24.5 5.7267 8.5
      vertex 24.5 -5.7267 8.5
    endloop
  endfacet
  facet normal -1 0 0
    outer loop
      vertex 24.5 -13 10.5
      vertex 24.5 -5.7267 8.5
      vertex 24.5 -13 8.5
    endloop
  endfacet
  facet normal 0 0 -1
    outer loop
      vertex 24.5 -5.7267 8.5
      vertex 24.5 5.7267 8.5
      vertex 25.1058 -4.67747 8.5
    endloop
  endfacet
  facet normal 0 0 -1
    outer loop
      vertex 25.1058 -4.67747 8.5
      vertex 24.5 5.7267 8.5
      vertex 25.1058 4.67747 8.5
    endloop
  endfacet
  facet normal 0 0 -1
    outer loop
      vertex 25.1058 -4.67747 8.5
      vertex 25.1058 4.67747 8.5
      vertex 25.8487 2.39098 8.5
    endloop
  endfacet
  facet normal 0 0 -1
    outer loop
      vertex 25.1058 -4.67747 8.5
      vertex 25.8487 2.39098 8.5
      vertex 26.1 0 8.5
    endloop
  endfacet
  facet normal 0 0 -1
    outer loop
      vertex 25.1058 -4.67747 8.5
      vertex 26.1 0 8.5
      vertex 25.8487 -2.39098 8.5
    endloop
  endfacet
  facet normal 0 0 1
    outer loop
      vertex 24.5 -13 8.5
      vertex 24.5 -5.7267 8.5
      vertex 23.9037 -6.75953 8.5
    endloop
  endfacet
  facet normal 0 0 1
    outer loop
      vertex 23.5 -7.20788 8.5
      vertex 24.5 -13 8.5
      vertex 23.9037 -6.75953 8.5
    endloop
  endfacet
  facet normal 0 0 1
    outer loop
      vertex 23.5 -7.20788 8.5
      vertex 23.5 -13 8.5
      vertex 24.5 -13 8.5
    endloop
  endfacet
  facet normal -1 0 0
    outer loop
      vertex 23.5 -7.20788 8.5
      vertex 23.5 -7.20788 1.5
      vertex 23.5 -13 8.5
    endloop
  endfacet
  facet normal -1 0 0
    outer loop
      vertex 23.5 -13 8.5
      vertex 23.5 -7.20788 1.5
      vertex 23.5 -13 1.5
    endloop
  endfacet
  facet normal -1 0 0
    outer loop
      vertex 23.75 13 12.5
      vertex 23.75 13 10.5
      vertex 23.75 10 12.5
    endloop
  endfacet
  facet normal -1 0 0
    outer loop
      vertex 23.75 10 12.5
      vertex 23.75 13 10.5
      vertex 23.75 10 10.5
    endloop
  endfacet
  facet normal 0 -1 0
    outer loop
      vertex -23.5 13 8.5
      vertex -23.5 13 1.5
      vertex -17.5216 13 1.5
    endloop
  endfacet
  facet normal 0 -1 0
    outer loop
      vertex 23.5 13 8.5
      vertex -23.5 13 8.5
      vertex 23.5 13 1.5
    endloop
  endfacet
  facet normal 0 -1 0
    outer loop
      vertex 23.5 13 1.5
      vertex -23.5 13 8.5
      vertex -17.5216 13 1.5
    endloop
  endfacet
  facet normal 0 -1 0
    outer loop
      vertex 24.5 13 10.5
      vertex -23.5 13 8.5
      vertex 23.5 13 8.5
    endloop
  endfacet
  facet normal 0 -1 0
    outer loop
      vertex 24.5 13 10.5
      vertex 23.5 13 8.5
      vertex 24.5 13 8.5
    endloop
  endfacet
  facet normal 0 -1 0
    outer loop
      vertex 23.75 13 10.5
      vertex -23.5 13 8.5
      vertex 24.5 13 10.5
    endloop
  endfacet
  facet normal 0 -1 0
    outer loop
      vertex 23.75 13 12.5
      vertex -23.5 13 8.5
      vertex 23.75 13 10.5
    endloop
  endfacet
  facet normal 0 -1 0
    outer loop
      vertex -23.75 13 12.5
      vertex -23.5 13 8.5
      vertex 23.75 13 12.5
    endloop
  endfacet
  facet normal 0 -1 0
    outer loop
      vertex -24.5 13 8.5
      vertex -23.75 13 10.5
      vertex -24.5 13 10.5
    endloop
  endfacet
  facet normal 0 -1 0
    outer loop
      vertex -23.75 13 10.5
      vertex -23.5 13 8.5
      vertex -23.75 13 12.5
    endloop
  endfacet
  facet normal 0 -1 0
    outer loop
      vertex -24.5 13 8.5
      vertex -23.5 13 8.5
      vertex -23.75 13 10.5
    endloop
  endfacet
  facet normal 1 0 0
    outer loop
      vertex -23.75 13 10.5
      vertex -23.75 13 12.5
      vertex -23.75 10 12.5
    endloop
  endfacet
  facet normal 1 0 0
    outer loop
      vertex -23.75 10 10.5
      vertex -23.75 13 10.5
      vertex -23.75 10 12.5
    endloop
  endfacet
  facet normal 0 0 -1
    outer loop
      vertex -23.75 13 10.5
      vertex -23.75 10 10.5
      vertex -24.5 13 10.5
    endloop
  endfacet
  facet normal 0 0 -1
    outer loop
      vertex -24.5 13 10.5
      vertex -23.75 10 10.5
      vertex -24.5 10 10.5
    endloop
  endfacet
  facet normal 1 0 0
    outer loop
      vertex -24.5 13 8.5
      vertex -24.5 13 10.5
      vertex -24.5 10 10.5
    endloop
  endfacet
  facet normal 1 0 0
    outer loop
      vertex -24.5 -13 10.5
      vertex -24.5 13 8.5
      vertex -24.5 -10 10.5
    endloop
  endfacet
  facet normal 1 0 0
    outer loop
      vertex -24.5 -10 10.5
      vertex -24.5 13 8.5
      vertex -24.5 10 10.5
    endloop
  endfacet
  facet normal 1 0 0
    outer loop
      vertex -24.5 -13 8.5
      vertex -24.5 13 8.5
      vertex -24.5 -13 10.5
    endloop
  endfacet
  facet normal 0 0 -1
    outer loop
      vertex -23.75 -10 10.5
      vertex -23.75 -13 10.5
      vertex -24.5 -10 10.5
    endloop
  endfacet
  facet normal 0 0 -1
    outer loop
      vertex -24.5 -10 10.5
      vertex -23.75 -13 10.5
      vertex -24.5 -13 10.5
    endloop
  endfacet
  facet normal 1 0 0
    outer loop
      vertex -23.75 -10 10.5
      vertex -23.75 -10 12.5
      vertex -23.75 -13 12.5
    endloop
  endfacet
  facet normal 1 0 0
    outer loop
      vertex -23.75 -13 10.5
      vertex -23.75 -10 10.5
      vertex -23.75 -13 12.5
    endloop
  endfacet
  facet normal 0 1 0
    outer loop
      vertex -23.75 -13 10.5
      vertex -23.75 -13 12.5
      vertex 23.75 -13 12.5
    endloop
  endfacet
  facet normal 0 1 0
    outer loop
      vertex -23.75 -13 10.5
      vertex 23.75 -13 12.5
      vertex 23.75 -13 10.5
    endloop
  endfacet
  facet normal 0 1 0
    outer loop
      vertex -23.75 -13 10.5
      vertex 24.5 -13 8.5
      vertex -24.5 -13 10.5
    endloop
  endfacet
  facet normal 0 1 0
    outer loop
      vertex 23.75 -13 10.5
      vertex 24.5 -13 10.5
      vertex 24.5 -13 8.5
    endloop
  endfacet
  facet normal 0 1 0
    outer loop
      vertex 23.75 -13 10.5
      vertex 24.5 -13 8.5
      vertex -23.75 -13 10.5
    endloop
  endfacet
  facet normal 0 1 0
    outer loop
      vertex 24.5 -13 8.5
      vertex 23.5 -13 8.5
      vertex -24.5 -13 10.5
    endloop
  endfacet
  facet normal 0 1 0
    outer loop
      vertex 23.5 -13 8.5
      vertex 23.5 -13 1.5
      vertex -24.5 -13 10.5
    endloop
  endfacet
  facet normal 0 1 0
    outer loop
      vertex 23.5 -13 1.5
      vertex -17.5216 -13 1.5
      vertex -24.5 -13 10.5
    endloop
  endfacet
  facet normal 0 1 0
    outer loop
      vertex -17.5216 -13 1.5
      vertex -23.5 -13 1.5
      vertex -23.5 -13 8.5
    endloop
  endfacet
  facet normal 0 1 0
    outer loop
      vertex -17.5216 -13 1.5
      vertex -23.5 -13 8.5
      vertex -24.5 -13 10.5
    endloop
  endfacet
  facet normal 0 1 0
    outer loop
      vertex -24.5 -13 8.5
      vertex -24.5 -13 10.5
      vertex -23.5 -13 8.5
    endloop
  endfacet
  facet normal -1 0 0
    outer loop
      vertex 23.75 -10 12.5
      vertex 23.75 -10 10.5
      vertex 23.75 -13 12.5
    endloop
  endfacet
  facet normal -1 0 0
    outer loop
      vertex 23.75 -13 12.5
      vertex 23.75 -10 10.5
      vertex 23.75 -13 10.5
    endloop
  endfacet
  facet normal 0 0 -1
    outer loop
      vertex 24.5 -10 10.5
      vertex 24.5 -13 10.5
      vertex 23.75 -10 10.5
    endloop
  endfacet
  facet normal 0 0 -1
    outer loop
      vertex 23.75 -10 10.5
      vertex 24.5 -13 10.5
      vertex 23.75 -13 10.5
    endloop
  endfacet
  facet normal 0 0 -1
    outer loop
      vertex 24.5 13 10.5
      vertex 24.5 10 10.5
      vertex 23.75 13 10.5
    endloop
  endfacet
  facet normal 0 0 -1
    outer loop
      vertex 23.75 13 10.5
      vertex 24.5 10 10.5
      vertex 23.75 10 10.5
    endloop
  endfacet
  facet normal 0 0 1
    outer loop
      vertex -17.5216 -13 1.5
      vertex -17.5 -12.9904 1.5
      vertex -14.963 -11.1472 1.5
    endloop
  endfacet
  facet normal 0 0 1
    outer loop
      vertex -11.2968 -6.10105 1.5
      vertex -17.5216 -13 1.5
      vertex -12.8647 -8.81678 1.5
    endloop
  endfacet
  facet normal 0 0 1
    outer loop
      vertex -12.8647 -8.81678 1.5
      vertex -17.5216 -13 1.5
      vertex -14.963 -11.1472 1.5
    endloop
  endfacet
  facet normal 0 0 1
    outer loop
      vertex -10.3278 -3.11867 1.5
      vertex -17.5216 -13 1.5
      vertex -11.2968 -6.10105 1.5
    endloop
  endfacet
  facet normal 0 0 1
    outer loop
      vertex -10 0 1.5
      vertex -17.5216 -13 1.5
      vertex -10.3278 -3.11867 1.5
    endloop
  endfacet
  facet normal 0 0 1
    outer loop
      vertex -10.3278 3.11867 1.5
      vertex -17.5216 -13 1.5
      vertex -10 0 1.5
    endloop
  endfacet
  facet normal 0 0 1
    outer loop
      vertex -14.0375 -4.88084 1.5
      vertex -17.5216 -13 1.5
      vertex -10.3278 3.11867 1.5
    endloop
  endfacet
  facet normal 0 0 1
    outer loop
      vertex -14.0375 -4.88084 1.5
      vertex -15.2918 -7.05342 1.5
      vertex -17.5216 -13 1.5
    endloop
  endfacet
  facet normal 0 0 1
    outer loop
      vertex -13.2622 2.49494 1.5
      vertex -13 0 1.5
      vertex -11.2968 6.10105 1.5
    endloop
  endfacet
  facet normal 0 0 1
    outer loop
      vertex -14.0375 4.88084 1.5
      vertex -13.2622 2.49494 1.5
      vertex -12.8647 8.81678 1.5
    endloop
  endfacet
  facet normal 0 0 1
    outer loop
      vertex -16.9704 8.91774 1.5
      vertex -15.2918 7.05342 1.5
      vertex -14.963 11.1472 1.5
    endloop
  endfacet
  facet normal 0 0 1
    outer loop
      vertex -19 10.3923 1.5
      vertex -17.5 12.9904 1.5
      vertex -17.5216 13 1.5
    endloop
  endfacet
  facet normal 0 0 1
    outer loop
      vertex -23.5 13 1.5
      vertex -21.2918 11.4127 1.5
      vertex -17.5216 13 1.5
    endloop
  endfacet
  facet normal 0 0 1
    outer loop
      vertex -21.2918 11.4127 1.5
      vertex -19 10.3923 1.5
      vertex -17.5216 13 1.5
    endloop
  endfacet
  facet normal 0 0 1
    outer loop
      vertex -17.5 12.9904 1.5
      vertex -16.9704 8.91774 1.5
      vertex -14.963 11.1472 1.5
    endloop
  endfacet
  facet normal 0 0 1
    outer loop
      vertex -14.963 11.1472 1.5
      vertex -15.2918 7.05342 1.5
      vertex -12.8647 8.81678 1.5
    endloop
  endfacet
  facet normal 0 0 1
    outer loop
      vertex -15.2918 7.05342 1.5
      vertex -14.0375 4.88084 1.5
      vertex -12.8647 8.81678 1.5
    endloop
  endfacet
  facet normal 0 0 1
    outer loop
      vertex -12.8647 8.81678 1.5
      vertex -13.2622 2.49494 1.5
      vertex -11.2968 6.10105 1.5
    endloop
  endfacet
  facet normal 0 0 1
    outer loop
      vertex -11.2968 6.10105 1.5
      vertex -13 0 1.5
      vertex -10.3278 3.11867 1.5
    endloop
  endfacet
  facet normal 0 0 1
    outer loop
      vertex -13 0 1.5
      vertex -13.2622 -2.49494 1.5
      vertex -10.3278 3.11867 1.5
    endloop
  endfacet
  facet normal 0 0 1
    outer loop
      vertex -13.2622 -2.49494 1.5
      vertex -14.0375 -4.88084 1.5
      vertex -10.3278 3.11867 1.5
    endloop
  endfacet
  facet normal 0 0 1
    outer loop
      vertex -21.2918 -11.4127 1.5
      vertex -17.5216 -13 1.5
      vertex -19 -10.3923 1.5
    endloop
  endfacet
  facet normal 0 0 1
    outer loop
      vertex -23.5 -11.882 1.5
      vertex -17.5216 -13 1.5
      vertex -21.2918 -11.4127 1.5
    endloop
  endfacet
  facet normal 0 0 1
    outer loop
      vertex -23.5 -13 1.5
      vertex -17.5216 -13 1.5
      vertex -23.5 -11.882 1.5
    endloop
  endfacet
  facet normal 0 0 1
    outer loop
      vertex -23.5 11.882 1.5
      vertex -21.2918 11.4127 1.5
      vertex -23.5 13 1.5
    endloop
  endfacet
  facet normal 0 0 1
    outer loop
      vertex -19 10.3923 1.5
      vertex -16.9704 8.91774 1.5
      vertex -17.5 12.9904 1.5
    endloop
  endfacet
  facet normal 0 0 1
    outer loop
      vertex -15.2918 -7.05342 1.5
      vertex -16.9704 -8.91774 1.5
      vertex -17.5216 -13 1.5
    endloop
  endfacet
  facet normal 0 0 1
    outer loop
      vertex -16.9704 -8.91774 1.5
      vertex -19 -10.3923 1.5
      vertex -17.5216 -13 1.5
    endloop
  endfacet
  facet normal 0 0 1
    outer loop
      vertex -23.5 -13 8.5
      vertex -23.5 13 8.5
      vertex -24.5 13 8.5
    endloop
  endfacet
  facet normal 0 0 1
    outer loop
      vertex -24.5 -13 8.5
      vertex -23.5 -13 8.5
      vertex -24.5 13 8.5
    endloop
  endfacet
  facet normal 1 0 0
    outer loop
      vertex -23.5 11.882 1.5
      vertex -23.5 13 1.5
      vertex -23.5 13 8.5
    endloop
  endfacet
  facet normal 1 0 0
    outer loop
      vertex -23.5 -11.882 1.5
      vertex -23.5 11.882 1.5
      vertex -23.5 13 8.5
    endloop
  endfacet
  facet normal 1 0 0
    outer loop
      vertex -23.5 -13 8.5
      vertex -23.5 -11.882 1.5
      vertex -23.5 13 8.5
    endloop
  endfacet
  facet normal 1 0 0
    outer loop
      vertex -23.5 -13 1.5
      vertex -23.5 -11.882 1.5
      vertex -23.5 -13 8.5
    endloop
  endfacet
  facet normal 0 0 1
    outer loop
      vertex -21.2918 -11.4127 1.5
      vertex -19 -10.3923 1.5
      vertex -16.9704 -8.91774 1.5
    endloop
  endfacet
  facet normal 0 0 1
    outer loop
      vertex -14.0375 -4.88084 1.5
      vertex -21.2918 -11.4127 1.5
      vertex -15.2918 -7.05342 1.5
    endloop
  endfacet
  facet normal 0 0 1
    outer loop
      vertex -15.2918 -7.05342 1.5
      vertex -21.2918 -11.4127 1.5
      vertex -16.9704 -8.91774 1.5
    endloop
  endfacet
  facet normal 0 0 1
    outer loop
      vertex -13.2622 -2.49494 1.5
      vertex -21.2918 -11.4127 1.5
      vertex -14.0375 -4.88084 1.5
    endloop
  endfacet
  facet normal 0 0 1
    outer loop
      vertex -13 0 1.5
      vertex -21.2918 -11.4127 1.5
      vertex -13.2622 -2.49494 1.5
    endloop
  endfacet
  facet normal 0 0 1
    outer loop
      vertex -13.2622 2.49494 1.5
      vertex -21.2918 -11.4127 1.5
      vertex -13 0 1.5
    endloop
  endfacet
  facet normal 0 0 1
    outer loop
      vertex -14.0375 4.88084 1.5
      vertex -21.2918 -11.4127 1.5
      vertex -13.2622 2.49494 1.5
    endloop
  endfacet
  facet normal 0 0 1
    outer loop
      vertex -15.2918 7.05342 1.5
      vertex -21.2918 -11.4127 1.5
      vertex -14.0375 4.88084 1.5
    endloop
  endfacet
  facet normal 0 0 1
    outer loop
      vertex -16.9704 8.91774 1.5
      vertex -21.2918 -11.4127 1.5
      vertex -15.2918 7.05342 1.5
    endloop
  endfacet
  facet normal 0 0 1
    outer loop
      vertex -19 10.3923 1.5
      vertex -21.2918 -11.4127 1.5
      vertex -16.9704 8.91774 1.5
    endloop
  endfacet
  facet normal 0 0 1
    outer loop
      vertex -21.2918 11.4127 1.5
      vertex -21.2918 -11.4127 1.5
      vertex -19 10.3923 1.5
    endloop
  endfacet
  facet normal 0 0 1
    outer loop
      vertex -23.5 11.882 1.5
      vertex -21.2918 -11.4127 1.5
      vertex -21.2918 11.4127 1.5
    endloop
  endfacet
  facet normal 0 0 1
    outer loop
      vertex -23.5 -11.882 1.5
      vertex -21.2918 -11.4127 1.5
      vertex -23.5 11.882 1.5
    endloop
  endfacet
endsolid OpenSCAD_Model
